<svg width="209" height="44" viewBox="0 0 209 44" fill="none" xmlns="http://www.w3.org/2000/svg"><path d="M25.2231 22.4661 14.7559 32.9874c-.3281.3299-.86.3299-1.1994 0L3.08926 22.4661c-.32816-.3299-.32816-.8644 0-1.2057L13.5565 10.7391c.3281-.3299.86-.3299 1.1994 0l10.4672 10.5213c.3282.3413.3282.8758 0 1.2057Z" fill="#E6E7E8"/><path d="M23.7295 19.7702c-6.4727.4209-14.24673 2.8436-18.86361 4.4815l-1.76528-1.7744c-.32816-.3298-.32816-.8644 0-1.2057L13.5678 10.7503c.3282-.3298.86-.3298 1.1995 0l8.9622 9.0199ZM53.2187 11.8311h-3.8134v20.8151h3.8134V11.8311ZM82.5155 13.8669c-1.4937-1.3422-3.3382-2.0246-5.4656-2.0246-1.1995 0-2.3537.2502-3.4627.7393-.9844.4436-1.8558 1.0465-2.5913 1.8086-.6337-.7621-1.4371-1.365-2.399-1.7972-1.041-.4891-2.1839-.7393-3.3834-.7393-.9392 0-1.8332.1365-2.6479.4208-.6337.2275-1.2108.5346-1.72.9213v-.6711h-3.8135v20.1555h3.8135V18.8717c0-1.0692.43-1.9337 1.3013-2.6503.8487-.7166 1.8784-1.0805 3.0666-1.0805 1.1089 0 2.0708.3753 2.8629 1.1147.7921.7165 1.1769 1.5696 1.1769 2.6047v13.7744h3.8134v-13.763c0-1.0465.3848-1.8996 1.1882-2.6161.7695-.7508 1.686-1.1147 2.8063-1.1147 1.1203 0 2.0482.3639 2.8177 1.1147.7921.7165 1.1768 1.5696 1.1768 2.6047v13.7744h3.8135v-13.763c0-1.9678-.7921-3.6512-2.3537-5.0048ZM106.268 28.8356c-.374-.3298-.555-.7166-.555-1.1829V17.5522c0-1.7858-.815-3.2644-2.433-4.4133-1.516-1.0691-3.3267-1.6037-5.3862-1.6037-2.15 0-4.0285.5232-5.5787 1.5583-1.7201 1.1488-2.5914 2.6502-2.5914 4.4587v1.6379h3.8587v-.9668c0-.9668.4187-1.763 1.29-2.4114.8601-.6369 1.8785-.9554 3.0327-.9554 1.0863 0 2.0369.3298 2.8289.9896.781.6597 1.166 1.4331 1.166 2.3772 0 .8076-.476 1.3877-1.46 1.763-.7583.3072-1.9012.5233-3.3949.6484-2.2406.182-4.1643.7962-5.7145 1.8199-1.7427 1.1829-2.6366 2.6957-2.6366 4.5043 0 1.8312.7016 3.3213 2.0934 4.4018 1.3353 1.0692 3.1458 1.6152 5.3751 1.6152 1.3465 0 2.6026-.2161 3.7342-.637 1.0753-.3981 1.9463-.9895 2.6143-1.7516.317.5573.758 1.0351 1.346 1.4218.724.4436 1.551.6597 2.444.6597h1.573v-3.3327h-.305c-.509 0-.939-.1592-1.301-.5005Zm-4.368-3.89c0 1.3308-.566 2.3886-1.72 3.2644-1.1094.8645-2.456 1.3081-4.0175 1.3081-1.0072 0-1.8672-.2389-2.5688-.7052-.7355-.5005-1.0976-1.1147-1.0976-1.8768 0-.8531.3848-1.5355 1.1882-2.1043.7695-.5573 1.7087-.8758 2.795-.9668l.9053-.0455c2.0368-.1592 3.5074-.4891 4.4814-1.0351l.034 2.1612ZM127.044 14.2309c-1.619-1.581-3.61-2.3886-5.907-2.3886-1.29 0-2.478.2161-3.553.6483-.827.3526-1.528.8417-2.071 1.4446l.011-1.4332h-3.813v20.1554h3.813v-12.762c0-1.274.487-2.3318 1.505-3.2304 1.007-.8872 2.229-1.3421 3.621-1.3421s2.591.4549 3.576 1.3421c.984.8986 1.46 1.9451 1.46 3.2304v12.762h3.813v-12.762c-.011-2.2067-.837-4.1062-2.455-5.6645ZM43.3173 21.8291c-1.4145-1.1261-3.1571-1.7744-5.1487-1.9223-1.5163-.1138-2.7158-.3867-3.5645-.819-1.0524-.4777-1.5616-1.1602-1.5616-2.0701 0-.7621.3168-1.3649.9505-1.8313.6677-.4663 1.5843-.6938 2.7045-.6938 1.3353 0 2.4103.3526 3.2024 1.035.5771.5005.9392 1.1147 1.0864 1.8427l3.5079-1.5469c-.3734-1.0578-.9958-1.9678-1.8898-2.7071-1.471-1.2853-3.4513-1.9337-5.9069-1.9337-2.2292 0-4.0397.5232-5.375 1.5697-1.3919 1.0578-2.1048 2.491-2.1048 4.2654 0 1.6493.6903 3.0825 2.0369 4.254 1.2674 1.1261 2.8516 1.7858 4.7074 1.9337 1.6521.1478 3.01.4891 4.0398 1.0237 1.1881.6256 1.7766 1.4445 1.7766 2.5137 0 .7393-.3961 1.3422-1.2222 1.8199-.86.5005-2.0481.7507-3.5305.7507-1.4258 0-2.58-.3981-3.4287-1.1943-.7242-.6711-1.1203-1.5128-1.2335-2.5479l-3.6097 1.365c.3508 1.4218 1.0863 2.6388 2.2292 3.617 1.5956 1.3763 3.7569 2.0702 6.4274 2.0702 2.4443 0 4.4359-.5687 5.9296-1.7062 1.4937-1.1488 2.2631-2.7071 2.2631-4.6294-.0113-1.7516-.7694-3.2531-2.2858-4.4587ZM205.689 19.4859v13.763h-2.127v-13.763c0-1.3877-.532-2.5706-1.573-3.5147-.996-.9668-2.241-1.4559-3.678-1.4559-1.448 0-2.682.4891-3.678 1.4559-1.041.9554-1.573 2.1384-1.573 3.5261v13.763h-2.127v-13.763c0-1.3877-.532-2.5707-1.573-3.5147-1.03-.9669-2.286-1.456-3.734-1.456-1.505 0-2.818.4664-3.893 1.3763-1.165.9555-1.765 2.1612-1.765 3.5944v13.763h-2.127V13.6394h2.127l-.011 1.7062 1.573-1.1829c.464-.3526.995-.637 1.561-.8417.77-.2617 1.63-.3981 2.524-.3981 1.142 0 2.218.2388 3.225.7052.894.4094 1.64.9668 2.218 1.6606l.701.8417.758-.7848c.691-.7166 1.517-1.2967 2.456-1.7175 1.052-.4664 2.172-.7052 3.315-.7052 2.037 0 3.791.6483 5.206 1.9222l.022.0114c1.437 1.2626 2.173 2.8209 2.173 4.6294ZM150.886 28.5515c-.023.0228-2.218 2.764-6.382 2.764-4.741 0-8.181-3.5602-8.181-8.4626 0-4.9478 3.44-8.5422 8.181-8.5422 3.621 0 5.828 2.4342 5.85 2.4569l.136.1479 1.222-1.6038-.09-.1024c-.023-.0341-2.445-2.8436-7.107-2.8436-5.839 0-10.229 4.5043-10.229 10.4872 0 6.0285 4.3 10.4076 10.229 10.4076 4.855 0 7.48-3.0938 7.503-3.1166l.079-.091-1.053-1.672-.158.1706ZM164.624 12.2861c-5.658 0-10.264 4.7204-10.264 10.51s4.606 10.5099 10.264 10.5099c5.658 0 10.263-4.7203 10.263-10.5099s-4.605-10.51-10.263-10.51Zm0 18.9157c-4.515 0-8.193-3.765-8.193-8.4057 0-4.6408 3.678-8.4057 8.193-8.4057s8.192 3.7649 8.192 8.4057c0 4.6407-3.677 8.4057-8.192 8.4057ZM134.263 29.7231h-2.908v2.9233h2.908v-2.9233Z" fill="#fff"/></svg>