<svg width="375" height="186" viewBox="0 0 375 186" fill="none" xmlns="http://www.w3.org/2000/svg">
<g clip-path="url(#clip0_1_3548)">
<path d="M187.229 42.4819C187.229 42.4819 170.229 47.4956 177.915 66.2851C197.653 58.4885 187.229 42.4819 187.229 42.4819Z" fill="#BB2E26"/>
<path d="M186.171 43.3613C186.171 43.3613 170.606 34.8877 162.754 53.6078C182.226 62.0509 186.171 43.3613 186.171 43.3613Z" fill="#BB2E26"/>
<path d="M184.803 43.234C184.803 43.234 179.789 26.2341 161 33.9197C168.797 53.6581 184.803 43.234 184.803 43.234Z" fill="#BB2E26"/>
<path d="M183.921 42.1743C183.921 42.1743 192.395 26.6089 173.675 18.7568C165.232 38.2289 183.921 42.1743 183.921 42.1743Z" fill="#BB2E26"/>
<path d="M184.051 40.8031C184.051 40.8031 201.051 35.7895 193.366 17C173.627 24.7966 184.051 40.8031 184.051 40.8031Z" fill="#BB2E26"/>
<path d="M185.109 39.9265C185.109 39.9265 200.675 48.4001 208.527 29.68C189.055 21.2369 185.109 39.9265 185.109 39.9265Z" fill="#BB2E26"/>
<path d="M186.48 40.0542C186.48 40.0542 191.494 57.0541 210.284 49.3685C202.487 29.6301 186.48 40.0542 186.48 40.0542Z" fill="#BB2E26"/>
<path d="M187.358 41.1113C187.358 41.1113 178.885 56.6767 197.605 64.5288C206.048 45.0568 187.358 41.1113 187.358 41.1113Z" fill="#BB2E26"/>
<path d="M186.12 54.1906C186.367 52.4731 186.503 50.7223 186.433 48.9938C186.289 47.268 186.106 45.6338 185.715 43.9191L185.787 43.8774C187.036 45.2509 187.249 47.2264 187.099 48.9965C187.005 50.7667 186.705 52.5147 186.2 54.21L186.12 54.1906Z" fill="#DCCDAA"/>
<path d="M183.355 53.5803C185.026 50.6836 186.402 47.3098 185.714 43.922L185.786 43.8804C187.717 46.1222 186.136 49.2658 184.915 51.4633C184.46 52.2152 183.977 52.9477 183.422 53.6275L183.355 53.5775V53.5803Z" fill="#DCCDAA"/>
<path d="M180.809 52.4843C182.28 51.3218 183.576 49.8901 184.447 48.2337C184.699 47.6815 184.935 47.1155 185.152 46.5523C185.471 45.8032 185.648 45.0207 185.898 44.1772H185.981C186.453 45.9197 185.804 47.7814 184.702 49.141C183.659 50.5283 182.355 51.7019 180.851 52.5537L180.807 52.4843H180.809Z" fill="#DCCDAA"/>
<path d="M179.93 49.6902C181.597 48.5527 182.993 47.0849 184.252 45.5339C184.719 45.0622 185.143 44.5628 185.692 44.0967L185.765 44.1383C185.479 45.5367 184.535 46.6798 183.428 47.5288C182.382 48.4278 181.223 49.1908 179.971 49.7624L179.932 49.6902H179.93Z" fill="#DCCDAA"/>
<path d="M180.071 51.8268C182.529 49.6654 184.669 47.1128 186.125 44.1689L186.15 44.1773C185.704 45.781 184.741 47.1905 183.653 48.4279C182.568 49.6404 181.356 50.9112 180.068 51.824L180.071 51.8268Z" fill="#DCCDAA"/>
<path d="M177.104 50.8582C178.494 49.8178 179.826 48.6774 181 47.4039C182.121 46.0804 183.145 44.7958 184.08 43.3086L184.16 43.3308C184.071 45.187 182.826 46.7324 181.469 47.8783C180.151 49.0631 178.7 50.0869 177.146 50.9304L177.102 50.8582H177.104Z" fill="#DCCDAA"/>
<path d="M175.586 48.4721C178.816 47.6036 182.176 46.1942 184.084 43.3086L184.165 43.3308C183.943 46.2802 180.605 47.3845 178.186 48.0781C177.331 48.289 176.471 48.4638 175.6 48.5526L175.586 48.4693V48.4721Z" fill="#DCCDAA"/>
<path d="M174.559 45.8948C176.421 46.1112 178.349 46.0169 180.136 45.4619C180.705 45.2511 181.271 45.0152 181.823 44.7711C182.581 44.4659 183.255 44.0386 184.029 43.6196L184.09 43.6779C183.191 45.2455 181.415 46.1029 179.673 46.286C177.955 46.5302 176.202 46.4358 174.537 45.9752L174.557 45.8948H174.559Z" fill="#DCCDAA"/>
<path d="M175.913 43.3006C177.897 43.678 179.922 43.6253 181.909 43.4172C182.575 43.4144 183.227 43.3589 183.942 43.4172L183.965 43.4976C182.774 44.2856 181.298 44.4271 179.914 44.244C178.538 44.1386 177.178 43.8583 175.891 43.3783L175.916 43.2979L175.913 43.3006Z" fill="#DCCDAA"/>
<path d="M174.501 44.9097C177.767 45.1206 181.085 44.8292 184.195 43.7749L184.206 43.7999C182.758 44.6184 181.079 44.9319 179.434 45.0401C177.808 45.1317 176.052 45.1705 174.498 44.9069L174.501 44.9097Z" fill="#DCCDAA"/>
<path d="M173.088 42.1273C174.805 42.3742 176.556 42.5101 178.285 42.4408C180.01 42.2965 181.645 42.1134 183.359 41.7222L183.401 41.7943C182.027 43.0429 180.052 43.2565 178.282 43.1067C176.512 43.0123 174.764 42.7127 173.068 42.2077L173.088 42.1273Z" fill="#DCCDAA"/>
<path d="M173.701 39.3633C176.598 41.0336 179.972 42.4098 183.36 41.7217L183.401 41.7938C181.16 43.7249 178.016 42.1434 175.818 40.9226C175.067 40.4676 174.334 39.9848 173.654 39.4299L173.704 39.3633H173.701Z" fill="#DCCDAA"/>
<path d="M174.798 36.8133C175.96 38.2839 177.392 39.5796 179.049 40.4508C179.601 40.7033 180.167 40.9391 180.73 41.1555C181.479 41.4746 182.262 41.6522 183.105 41.9019V41.9851C181.363 42.4568 179.501 41.8076 178.141 40.7061C176.754 39.6628 175.58 38.3588 174.729 36.8549L174.798 36.8105V36.8133Z" fill="#DCCDAA"/>
<path d="M177.588 35.937C178.725 37.6045 180.193 39.0002 181.744 40.2598C182.216 40.7259 182.715 41.1505 183.181 41.6998L183.14 41.772C181.741 41.4862 180.598 40.5428 179.749 39.4358C178.85 38.3897 178.087 37.23 177.516 35.9786L177.588 35.9398V35.937Z" fill="#DCCDAA"/>
<path d="M175.455 36.0785C177.617 38.5367 180.169 40.6759 183.113 42.1326L183.105 42.1576C181.501 41.7109 180.092 40.7481 178.854 39.6604C177.642 38.5756 176.371 37.3631 175.458 36.0757L175.455 36.0785Z" fill="#DCCDAA"/>
<path d="M176.425 33.1122C177.466 34.5022 178.606 35.834 179.88 37.0077C181.203 38.1286 182.488 39.1524 183.975 40.0875L183.953 40.1679C182.097 40.0791 180.551 38.8333 179.405 37.4766C178.221 36.1586 177.197 34.7075 176.353 33.1538L176.425 33.1094V33.1122Z" fill="#DCCDAA"/>
<path d="M178.813 31.5918C179.681 34.8214 181.091 38.1814 183.976 40.0903L183.954 40.1708C181.005 39.9488 179.9 36.611 179.207 34.1916C178.996 33.337 178.821 32.4769 178.732 31.6057L178.816 31.5918H178.813Z" fill="#DCCDAA"/>
<path d="M181.389 30.5652C181.173 32.4269 181.267 34.3552 181.822 36.1421C182.033 36.7109 182.269 37.2769 182.513 37.829C182.818 38.5865 183.245 39.2607 183.664 40.0348L183.606 40.0959C182.038 39.1969 181.181 37.4212 180.998 35.6787C180.754 33.9613 180.848 32.2077 181.309 30.543L181.389 30.5624V30.5652Z" fill="#DCCDAA"/>
<path d="M183.983 31.9162C183.606 33.9001 183.659 35.9255 183.867 37.9121C183.869 38.578 183.925 39.23 183.867 39.9459L183.786 39.9681C182.998 38.7778 182.857 37.3017 183.04 35.9172C183.145 34.541 183.425 33.1814 183.905 31.894L183.986 31.919L183.983 31.9162Z" fill="#DCCDAA"/>
<path d="M182.375 30.5067C182.164 33.7724 182.455 37.0908 183.51 40.2011L183.485 40.2122C182.666 38.7638 182.353 37.0852 182.245 35.4399C182.153 33.814 182.114 32.0577 182.378 30.5039L182.375 30.5067Z" fill="#DCCDAA"/>
<path d="M185.154 29.0946C184.907 30.8121 184.771 32.5628 184.84 34.2914C184.985 36.0172 185.168 37.6514 185.559 39.3661L185.487 39.4077C184.238 38.0343 184.025 36.0588 184.174 34.2886C184.269 32.5184 184.568 30.7705 185.073 29.0752L185.154 29.0946Z" fill="#DCCDAA"/>
<path d="M187.918 29.7078C186.248 32.6045 184.872 35.9784 185.56 39.3661L185.488 39.4077C183.557 37.1659 185.138 34.0223 186.359 31.8248C186.814 31.0729 187.297 30.3404 187.852 29.6606L187.918 29.7106V29.7078Z" fill="#DCCDAA"/>
<path d="M190.468 30.8037C188.998 31.9663 187.702 33.398 186.831 35.0544C186.578 35.6065 186.342 36.1726 186.126 36.7358C185.807 37.4849 185.629 38.2674 185.379 39.1108H185.296C184.825 37.3684 185.474 35.5067 186.575 34.1471C187.619 32.7598 188.923 31.5862 190.426 30.7344L190.471 30.8037H190.468Z" fill="#DCCDAA"/>
<path d="M191.345 33.5946C189.677 34.7322 188.281 36.1999 187.022 37.7509C186.556 38.2226 186.131 38.722 185.582 39.1882L185.51 39.1465C185.795 37.7482 186.739 36.605 187.846 35.756C188.892 34.857 190.052 34.094 191.303 33.5225L191.342 33.5946H191.345Z" fill="#DCCDAA"/>
<path d="M191.202 31.459C188.744 33.6204 186.605 36.173 185.148 39.1168L185.123 39.1085C185.57 37.5048 186.532 36.0953 187.62 34.8578C188.705 33.6454 189.917 32.3746 191.205 31.4618L191.202 31.459Z" fill="#DCCDAA"/>
<path d="M194.167 32.4296C192.777 33.47 191.445 34.6104 190.272 35.8839C189.151 37.2074 188.127 38.492 187.192 39.9792L187.111 39.957C187.2 38.1008 188.446 36.5554 189.803 35.4095C191.121 34.2247 192.572 33.2009 194.125 32.3574L194.17 32.4296H194.167Z" fill="#DCCDAA"/>
<path d="M195.688 34.8158C192.459 35.6843 189.099 37.0937 187.19 39.9793L187.109 39.9571C187.331 37.0077 190.669 35.9035 193.089 35.2098C193.943 34.9989 194.803 34.8241 195.675 34.7354L195.688 34.8186V34.8158Z" fill="#DCCDAA"/>
<path d="M196.716 37.3931C194.854 37.1767 192.926 37.271 191.139 37.826C190.571 38.0368 190.005 38.2727 189.452 38.5168C188.695 38.822 188.021 39.2493 187.247 39.6683L187.186 39.61C188.085 38.0424 189.86 37.185 191.603 37.0019C193.32 36.7577 195.074 36.8521 196.738 37.3127L196.719 37.3931H196.716Z" fill="#DCCDAA"/>
<path d="M195.364 39.9875C193.381 39.6101 191.355 39.6628 189.368 39.8709C188.703 39.8737 188.051 39.9292 187.335 39.8709L187.312 39.7905C188.503 39.0025 189.979 38.861 191.363 39.0441C192.74 39.1495 194.099 39.4298 195.387 39.9098L195.362 39.9902L195.364 39.9875Z" fill="#DCCDAA"/>
<path d="M196.774 38.3781C193.508 38.1673 190.19 38.4586 187.079 39.5129L187.068 39.488C188.517 38.6695 190.195 38.3559 191.841 38.2477C193.467 38.1562 195.223 38.1173 196.777 38.3809L196.774 38.3781Z" fill="#DCCDAA"/>
<path d="M198.188 41.1607C196.471 40.9138 194.72 40.7779 192.991 40.8472C191.266 40.9915 189.631 41.1746 187.917 41.5658L187.875 41.4937C189.248 40.2451 191.224 40.0315 192.994 40.1813C194.764 40.2757 196.512 40.5753 198.208 41.0803L198.188 41.1607Z" fill="#DCCDAA"/>
<path d="M197.575 43.9242C194.678 42.2539 191.304 40.8777 187.917 41.5658L187.875 41.4937C190.117 39.5626 193.26 41.1441 195.458 42.3649C196.21 42.8199 196.942 43.3027 197.622 43.8576L197.572 43.9242H197.575Z" fill="#DCCDAA"/>
<path d="M196.481 46.4711C195.318 45.0006 193.887 43.7049 192.23 42.8337C191.678 42.5812 191.112 42.3453 190.549 42.1289C189.8 41.8098 189.017 41.6323 188.174 41.3826V41.2993C189.916 40.8276 191.778 41.4769 193.138 42.5784C194.525 43.6216 195.698 44.9257 196.55 46.4295L196.481 46.4739V46.4711Z" fill="#DCCDAA"/>
<path d="M193.687 47.3476C192.55 45.6801 191.082 44.2845 189.531 43.0248C189.059 42.5587 188.56 42.1342 188.094 41.5848L188.135 41.5127C189.534 41.7985 190.677 42.7418 191.526 43.8489C192.425 44.8949 193.188 46.0547 193.759 47.306L193.687 47.3449V47.3476Z" fill="#DCCDAA"/>
<path d="M195.824 47.209C193.662 44.7507 191.11 42.6115 188.166 41.1549L188.174 41.1299C189.778 41.5766 191.188 42.5394 192.425 43.627C193.637 44.7119 194.908 45.9244 195.821 47.2118L195.824 47.209Z" fill="#DCCDAA"/>
<path d="M194.853 50.1759C193.812 48.7858 192.672 47.454 191.398 46.2804C190.075 45.1594 188.79 44.1356 187.303 43.2006L187.325 43.1201C189.181 43.2089 190.727 44.4547 191.873 45.8115C193.057 47.1294 194.081 48.5805 194.925 50.1343L194.853 50.1786V50.1759Z" fill="#DCCDAA"/>
<path d="M192.466 51.6962C191.598 48.4666 190.188 45.1066 187.303 43.1976L187.325 43.1172C190.274 43.3392 191.379 46.677 192.072 49.0964C192.283 49.951 192.458 50.8111 192.547 51.6823L192.464 51.6962H192.466Z" fill="#DCCDAA"/>
<path d="M189.888 52.7231C190.105 50.8613 190.011 48.933 189.456 47.1462C189.245 46.5774 189.009 46.0114 188.765 45.4592C188.46 44.7018 188.032 44.0275 187.613 43.2534L187.672 43.1924C189.239 44.0913 190.097 45.8671 190.28 47.6095C190.524 49.327 190.429 51.0805 189.969 52.7453L189.888 52.7259V52.7231Z" fill="#DCCDAA"/>
<path d="M187.294 51.3687C187.671 49.3849 187.618 47.3595 187.41 45.3729C187.408 44.707 187.352 44.0549 187.41 43.3391L187.491 43.3169C188.279 44.5072 188.42 45.9833 188.237 47.3678C188.132 48.744 187.851 50.1035 187.371 51.3909L187.291 51.366L187.294 51.3687Z" fill="#DCCDAA"/>
<path d="M188.902 52.7812C189.113 49.5155 188.822 46.1971 187.768 43.0868L187.793 43.0757C188.611 44.524 188.925 46.2026 189.033 47.848C189.124 49.4739 189.163 51.2302 188.9 52.7839L188.902 52.7812Z" fill="#DCCDAA"/>
<path d="M185.637 46.9014C188.541 46.9014 190.895 44.5474 190.895 41.6436C190.895 38.7398 188.541 36.3857 185.637 36.3857C182.733 36.3857 180.379 38.7398 180.379 41.6436C180.379 44.5474 182.733 46.9014 185.637 46.9014Z" fill="#F6F4EE"/>
<path d="M184.886 39.9098C185.114 39.9098 185.299 39.7247 185.299 39.4964C185.299 39.2681 185.114 39.083 184.886 39.083C184.658 39.083 184.473 39.2681 184.473 39.4964C184.473 39.7247 184.658 39.9098 184.886 39.9098Z" fill="#BB2E26"/>
<path d="M183.228 44.0553C183.456 44.0553 183.641 43.8703 183.641 43.6419C183.641 43.4136 183.456 43.2285 183.228 43.2285C183 43.2285 182.814 43.4136 182.814 43.6419C182.814 43.8703 183 44.0553 183.228 44.0553Z" fill="#BB2E26"/>
<path d="M183.228 41.3614C183.343 41.3614 183.436 41.2681 183.436 41.1531C183.436 41.0381 183.343 40.9448 183.228 40.9448C183.113 40.9448 183.02 41.0381 183.02 41.1531C183.02 41.2681 183.113 41.3614 183.228 41.3614Z" fill="#BB2E26"/>
<path d="M185.509 42.8125C185.624 42.8125 185.717 42.7193 185.717 42.6043C185.717 42.4892 185.624 42.396 185.509 42.396C185.394 42.396 185.301 42.4892 185.301 42.6043C185.301 42.7193 185.394 42.8125 185.509 42.8125Z" fill="#BB2E26"/>
<path d="M187.165 43.2286C187.28 43.2286 187.374 43.1353 187.374 43.0203C187.374 42.9053 187.28 42.812 187.165 42.812C187.05 42.812 186.957 42.9053 186.957 43.0203C186.957 43.1353 187.05 43.2286 187.165 43.2286Z" fill="#BB2E26"/>
<path d="M186.337 45.3013C186.452 45.3013 186.546 45.2081 186.546 45.093C186.546 44.978 186.452 44.8848 186.337 44.8848C186.222 44.8848 186.129 44.978 186.129 45.093C186.129 45.2081 186.222 45.3013 186.337 45.3013Z" fill="#BB2E26"/>
<path d="M185.921 41.0502C185.978 41.0502 186.024 41.0042 186.024 40.9475C186.024 40.8907 185.978 40.8447 185.921 40.8447C185.864 40.8447 185.818 40.8907 185.818 40.9475C185.818 41.0042 185.864 41.0502 185.921 41.0502Z" fill="#BB2E26"/>
<path d="M184.679 44.7797C184.736 44.7797 184.782 44.7337 184.782 44.677C184.782 44.6202 184.736 44.5742 184.679 44.5742C184.622 44.5742 184.576 44.6202 184.576 44.677C184.576 44.7337 184.622 44.7797 184.679 44.7797Z" fill="#BB2E26"/>
<path d="M182.191 42.2934C182.247 42.2934 182.293 42.2474 182.293 42.1906C182.293 42.1339 182.247 42.0879 182.191 42.0879C182.134 42.0879 182.088 42.1339 182.088 42.1906C182.088 42.2474 182.134 42.2934 182.191 42.2934Z" fill="#BB2E26"/>
<path d="M183.019 38.975C183.076 38.975 183.122 38.929 183.122 38.8723C183.122 38.8155 183.076 38.7695 183.019 38.7695C182.962 38.7695 182.916 38.8155 182.916 38.8723C182.916 38.929 182.962 38.975 183.019 38.975Z" fill="#BB2E26"/>
<path d="M370.433 -5.54199C370.433 -5.54199 374.623 13.5839 369.141 19.4915" stroke="#50716D" stroke-width="2.04555" stroke-miterlimit="10"/>
<path d="M371.888 7.16895C371.888 7.16895 366.393 13.4733 358.51 11.8083" stroke="#50716D" stroke-width="2.04555" stroke-miterlimit="10"/>
<path d="M371.777 6.64111C371.777 6.64111 374.298 14.2301 382.247 15.5638" stroke="#50716D" stroke-width="2.04555" stroke-miterlimit="10"/>
<path d="M357.328 17.912C359.926 17.912 362.033 15.8056 362.033 13.2072C362.033 10.6088 359.926 8.50244 357.328 8.50244C354.729 8.50244 352.623 10.6088 352.623 13.2072C352.623 15.8056 354.729 17.912 357.328 17.912Z" fill="#BB2E26"/>
<path d="M368.662 24.6254C371.26 24.6254 373.367 22.519 373.367 19.9206C373.367 17.3222 371.26 15.2158 368.662 15.2158C366.063 15.2158 363.957 17.3222 363.957 19.9206C363.957 22.519 366.063 24.6254 368.662 24.6254Z" fill="#BB2E26"/>
<path d="M407.624 11.0183C407.624 11.0183 364.471 2.35337 353.74 -26.853" stroke="#50716D" stroke-width="2.45466" stroke-miterlimit="10"/>
<path d="M361.55 1.0238C364.149 1.0238 366.255 -1.0826 366.255 -3.68097C366.255 -6.27934 364.149 -8.38574 361.55 -8.38574C358.952 -8.38574 356.846 -6.27934 356.846 -3.68097C356.846 -1.0826 358.952 1.0238 361.55 1.0238Z" fill="#BB2E26"/>
<path d="M323.123 65.1709C323.123 65.1709 312.332 66.5012 313.623 79.7498C326.491 76.9051 323.123 65.1709 323.123 65.1709Z" fill="#50716D"/>
<path d="M344.293 55.208C344.293 55.208 333.163 62.2799 341.285 76.4216C353.919 66.5825 344.293 55.208 344.293 55.208Z" fill="#50716D"/>
<path d="M318.2 45.2266C318.2 45.2266 313.229 57.4398 328.044 64.2586C332.637 48.9183 318.2 45.2266 318.2 45.2266Z" fill="#50716D"/>
<path d="M329.832 46.7955C329.832 46.7955 336.023 58.4377 350.751 51.4327C341.918 38.0775 329.832 46.7955 329.832 46.7955Z" fill="#50716D"/>
<path d="M306.093 51.0498C306.093 51.0498 302.334 59.703 312.818 64.8255C316.359 53.93 306.093 51.0498 306.093 51.0498Z" fill="#50716D"/>
<path d="M298 67.5676C298 67.5676 305.655 73.0812 312.891 63.926C302.997 58.1489 298 67.5676 298 67.5676Z" fill="#50716D"/>
<path d="M352 50.5688C352 50.5688 330.331 65.1916 322.345 65.1916C314.359 65.1916 312.392 64.1751 312.392 64.1751" stroke="#50716D" stroke-width="0.836664" stroke-miterlimit="10"/>
<path d="M332.821 66.9969C333.072 66.3715 332.383 65.7858 331.815 66.1456C330.06 67.2584 328.296 69.145 328.357 70.8853C328.457 73.73 329.965 75.1899 331.398 74.3052C332.831 73.4183 333.086 71.4856 332.459 69.7997C332.168 69.0216 332.442 67.9382 332.821 66.9969Z" fill="#7CAAA3"/>
<path d="M319.185 60.6802C319.522 61.178 319.137 61.7825 318.622 61.5608C317.032 60.8706 315.257 59.5214 314.899 58.0217C314.311 55.5703 315.114 54.0915 316.405 54.6353C317.696 55.1791 318.342 56.796 318.258 58.3355C318.221 59.0466 318.679 59.9335 319.185 60.6823V60.6802Z" fill="#7CAAA3"/>
<path d="M335.822 58.4525C336.373 58.4525 336.82 58.0058 336.82 57.4548C336.82 56.9037 336.373 56.457 335.822 56.457C335.271 56.457 334.824 56.9037 334.824 57.4548C334.824 58.0058 335.271 58.4525 335.822 58.4525Z" fill="#7CAAA3"/>
<path d="M332.577 58.7037C332.99 58.7037 333.326 58.3684 333.326 57.9549C333.326 57.5413 332.99 57.2061 332.577 57.2061C332.163 57.2061 331.828 57.5413 331.828 57.9549C331.828 58.3684 332.163 58.7037 332.577 58.7037Z" fill="#7CAAA3"/>
<path d="M312.36 70.1845C313.05 70.1845 313.609 69.6254 313.609 68.9357C313.609 68.2461 313.05 67.687 312.36 67.687C311.67 67.687 311.111 68.2461 311.111 68.9357C311.111 69.6254 311.67 70.1845 312.36 70.1845Z" fill="#7CAAA3"/>
<path d="M310.797 69.9814C310.797 69.9814 305.737 75.2273 305.001 72.642C304.265 70.0567 310.797 69.9814 310.797 69.9814Z" fill="#7CAAA3"/>
<path d="M311.576 71.1089C311.576 71.1089 312.308 77.3692 310.239 76.1351C308.17 74.9011 311.576 71.1089 311.576 71.1089Z" fill="#7CAAA3"/>
<path d="M334.663 55.4736C334.663 55.4736 326.924 52.4114 329.653 50.7757C332.381 49.1401 334.663 55.4736 334.663 55.4736Z" fill="#7CAAA3"/>
<path d="M32.2563 59.6539C32.2563 59.6539 43.6186 60.0872 44.5035 46.1929C30.7423 46.9759 32.2563 59.6539 32.2563 59.6539Z" fill="#50716D"/>
<path d="M8.73306 66.3987C8.73306 66.3987 21.4058 60.959 15.3866 45C0.696143 53.0447 8.73306 66.3987 8.73306 66.3987Z" fill="#50716D"/>
<path d="M34.0003 81.0682C34.0003 81.0682 41.1758 69.2908 27.0231 59.7739C19.7144 74.8428 34.0003 81.0682 34.0003 81.0682Z" fill="#50716D"/>
<path d="M22.2528 77.5028C22.2528 77.5028 17.8102 64.4464 1.43359 69.2153C8.3194 84.4825 22.2528 77.5028 22.2528 77.5028Z" fill="#50716D"/>
<path d="M47.474 77.0826C47.474 77.0826 52.8015 68.7794 42.8356 61.7344C37.3567 72.3894 47.474 77.0826 47.474 77.0826Z" fill="#50716D"/>
<path d="M58.592 61.3848C58.592 61.3848 51.6096 54.4128 42.6095 62.6533C51.8576 70.2726 58.592 61.3848 58.592 61.3848Z" fill="#50716D"/>
<path d="M0 69.8967C0 69.8967 24.8181 58.4247 33.0639 59.7611C41.3096 61.0976 43.1681 62.4758 43.1681 62.4758" stroke="#50716D" stroke-width="1.04409" stroke-miterlimit="10"/>
<path d="M22.5499 56.146C22.1871 56.7489 22.7978 57.4694 23.4452 57.1927C25.4446 56.3365 27.5798 54.6842 27.8069 52.878C28.1802 49.9258 26.8646 48.1639 25.2384 48.8399C23.6122 49.516 23.0223 51.4684 23.3904 53.3139C23.56 54.1674 23.0954 55.2376 22.5473 56.146H22.5499Z" fill="#7CAAA3"/>
<path d="M35.5691 64.9505C35.3055 64.3815 35.804 63.8203 36.2973 64.1361C37.8217 65.115 39.4296 66.8064 39.5497 68.4143C39.7455 71.0428 38.67 72.4367 37.4276 71.6588C36.1851 70.881 35.791 69.1034 36.1329 67.5294C36.2921 66.8012 35.9658 65.8093 35.5691 64.9531V64.9505Z" fill="#7CAAA3"/>
<path d="M17.8546 66.5398C18.4312 66.5398 18.8987 66.0724 18.8987 65.4958C18.8987 64.9191 18.4312 64.4517 17.8546 64.4517C17.278 64.4517 16.8105 64.9191 16.8105 65.4958C16.8105 66.0724 17.278 66.5398 17.8546 66.5398Z" fill="#7CAAA3"/>
<path d="M21.285 66.3074C21.7175 66.3074 22.0681 65.9568 22.0681 65.5243C22.0681 65.0918 21.7175 64.7412 21.285 64.7412C20.8525 64.7412 20.502 65.0918 20.502 65.5243C20.502 65.9568 20.8525 66.3074 21.285 66.3074Z" fill="#7CAAA3"/>
<path d="M43.9965 58.8734C44.7173 58.8734 45.3016 58.2891 45.3016 57.5683C45.3016 56.8475 44.7173 56.2632 43.9965 56.2632C43.2757 56.2632 42.6914 56.8475 42.6914 57.5683C42.6914 58.2891 43.2757 58.8734 43.9965 58.8734Z" fill="#7CAAA3"/>
<path d="M45.7834 56.7489C45.7834 56.7489 51.8862 52.1784 52.2125 54.9714C52.5387 57.7643 45.7834 56.7489 45.7834 56.7489Z" fill="#7CAAA3"/>
<path d="M45.1699 55.4566C45.1699 55.4566 45.4597 48.871 47.3912 50.4893C49.3202 52.1077 45.1699 55.4566 45.1699 55.4566Z" fill="#7CAAA3"/>
<path d="M18.7188 67.7354C18.7188 67.7354 26.1945 72.1936 23.1039 73.4231C20.0134 74.6551 18.7188 67.7354 18.7188 67.7354Z" fill="#7CAAA3"/>
<path d="M135.817 37.4311L142.808 22.335" stroke="#DCCDAA" stroke-width="0.466386" stroke-miterlimit="10"/>
<path d="M135.608 38.4949C135.994 38.4949 136.307 38.1816 136.307 37.7953C136.307 37.4089 135.994 37.0957 135.608 37.0957C135.221 37.0957 134.908 37.4089 134.908 37.7953C134.908 38.1816 135.221 38.4949 135.608 38.4949Z" fill="#DCCDAA"/>
<path d="M142.78 23.01C143.166 23.01 143.479 22.6968 143.479 22.3104C143.479 21.924 143.166 21.6108 142.78 21.6108C142.393 21.6108 142.08 21.924 142.08 22.3104C142.08 22.6968 142.393 23.01 142.78 23.01Z" fill="#DCCDAA"/>
<path d="M131.553 32.841L147.168 27.1094" stroke="#DCCDAA" stroke-width="0.466386" stroke-miterlimit="10"/>
<path d="M131.143 33.6511C131.529 33.6511 131.843 33.3379 131.843 32.9515C131.843 32.5652 131.529 32.252 131.143 32.252C130.757 32.252 130.443 32.5652 130.443 32.9515C130.443 33.3379 130.757 33.6511 131.143 33.6511Z" fill="#DCCDAA"/>
<path d="M147.162 27.7722C147.549 27.7722 147.862 27.459 147.862 27.0726C147.862 26.6863 147.549 26.373 147.162 26.373C146.776 26.373 146.463 26.6863 146.463 27.0726C146.463 27.459 146.776 27.7722 147.162 27.7722Z" fill="#DCCDAA"/>
<path d="M131.783 26.5815L146.879 33.5732" stroke="#DCCDAA" stroke-width="0.466386" stroke-miterlimit="10"/>
<path d="M131.414 27.0686C131.801 27.0686 132.114 26.7554 132.114 26.369C132.114 25.9827 131.801 25.6694 131.414 25.6694C131.028 25.6694 130.715 25.9827 130.715 26.369C130.715 26.7554 131.028 27.0686 131.414 27.0686Z" fill="#DCCDAA"/>
<path d="M146.901 34.2444C147.287 34.2444 147.6 33.9312 147.6 33.5448C147.6 33.1584 147.287 32.8452 146.901 32.8452C146.514 32.8452 146.201 33.1584 146.201 33.5448C146.201 33.9312 146.514 34.2444 146.901 34.2444Z" fill="#DCCDAA"/>
<path d="M136.371 22.3184L142.099 37.9341" stroke="#DCCDAA" stroke-width="0.466386" stroke-miterlimit="10"/>
<path d="M136.256 22.6091C136.643 22.6091 136.956 22.2959 136.956 21.9095C136.956 21.5232 136.643 21.21 136.256 21.21C135.87 21.21 135.557 21.5232 135.557 21.9095C135.557 22.2959 135.87 22.6091 136.256 22.6091Z" fill="#DCCDAA"/>
<path d="M142.135 38.6296C142.521 38.6296 142.835 38.3164 142.835 37.93C142.835 37.5437 142.521 37.2305 142.135 37.2305C141.749 37.2305 141.435 37.5437 141.435 37.93C141.435 38.3164 141.749 38.6296 142.135 38.6296Z" fill="#DCCDAA"/>
<path d="M351.341 101.366L346.219 85.5371" stroke="#DCCDAA" stroke-width="0.466386" stroke-miterlimit="10"/>
<path d="M351.44 102.478C351.826 102.478 352.139 102.165 352.139 101.779C352.139 101.392 351.826 101.079 351.44 101.079C351.053 101.079 350.74 101.392 350.74 101.779C350.74 102.165 351.053 102.478 351.44 102.478Z" fill="#DCCDAA"/>
<path d="M346.182 86.2405C346.568 86.2405 346.881 85.9273 346.881 85.5409C346.881 85.1545 346.568 84.8413 346.182 84.8413C345.796 84.8413 345.482 85.1545 345.482 85.5409C345.482 85.9273 345.796 86.2405 346.182 86.2405Z" fill="#DCCDAA"/>
<path d="M345.092 100.894L352.66 86.0806" stroke="#DCCDAA" stroke-width="0.466386" stroke-miterlimit="10"/>
<path d="M344.871 101.954C345.258 101.954 345.571 101.641 345.571 101.254C345.571 100.868 345.258 100.555 344.871 100.555C344.485 100.555 344.172 100.868 344.172 101.254C344.172 101.641 344.485 101.954 344.871 101.954Z" fill="#DCCDAA"/>
<path d="M352.637 86.7556C353.023 86.7556 353.337 86.4424 353.337 86.056C353.337 85.6697 353.023 85.3564 352.637 85.3564C352.251 85.3564 351.938 85.6697 351.938 86.056C351.938 86.4424 352.251 86.7556 352.637 86.7556Z" fill="#DCCDAA"/>
<path d="M341.008 96.145L356.836 91.0229" stroke="#DCCDAA" stroke-width="0.466386" stroke-miterlimit="10"/>
<path d="M340.596 96.9431C340.982 96.9431 341.296 96.6299 341.296 96.2435C341.296 95.8572 340.982 95.5439 340.596 95.5439C340.21 95.5439 339.896 95.8572 339.896 96.2435C339.896 96.6299 340.21 96.9431 340.596 96.9431Z" fill="#DCCDAA"/>
<path d="M356.834 91.6858C357.221 91.6858 357.534 91.3726 357.534 90.9862C357.534 90.5998 357.221 90.2866 356.834 90.2866C356.448 90.2866 356.135 90.5998 356.135 90.9862C356.135 91.3726 356.448 91.6858 356.834 91.6858Z" fill="#DCCDAA"/>
<path d="M341.482 89.8984L356.3 97.467" stroke="#DCCDAA" stroke-width="0.466386" stroke-miterlimit="10"/>
<path d="M341.125 90.3767C341.512 90.3767 341.825 90.0635 341.825 89.6771C341.825 89.2908 341.512 88.9775 341.125 88.9775C340.739 88.9775 340.426 89.2908 340.426 89.6771C340.426 90.0635 340.739 90.3767 341.125 90.3767Z" fill="#DCCDAA"/>
<path d="M356.319 98.1413C356.705 98.1413 357.018 97.8281 357.018 97.4418C357.018 97.0554 356.705 96.7422 356.319 96.7422C355.932 96.7422 355.619 97.0554 355.619 97.4418C355.619 97.8281 355.932 98.1413 356.319 98.1413Z" fill="#DCCDAA"/>
<path d="M52.2724 22.3568L47.1504 6.52832" stroke="#DCCDAA" stroke-width="0.466386" stroke-miterlimit="10"/>
<path d="M52.3713 23.47C52.7576 23.47 53.0708 23.1567 53.0708 22.7704C53.0708 22.384 52.7576 22.0708 52.3713 22.0708C51.9849 22.0708 51.6717 22.384 51.6717 22.7704C51.6717 23.1567 51.9849 23.47 52.3713 23.47Z" fill="#DCCDAA"/>
<path d="M47.1137 7.23216C47.5 7.23216 47.8132 6.91896 47.8132 6.53259C47.8132 6.14622 47.5 5.83301 47.1137 5.83301C46.7273 5.83301 46.4141 6.14622 46.4141 6.53259C46.4141 6.91896 46.7273 7.23216 47.1137 7.23216Z" fill="#DCCDAA"/>
<path d="M46.0254 21.8866L53.5939 7.07275" stroke="#DCCDAA" stroke-width="0.466386" stroke-miterlimit="10"/>
<path d="M45.805 22.946C46.1914 22.946 46.5046 22.6328 46.5046 22.2465C46.5046 21.8601 46.1914 21.5469 45.805 21.5469C45.4187 21.5469 45.1055 21.8601 45.1055 22.2465C45.1055 22.6328 45.4187 22.946 45.805 22.946Z" fill="#DCCDAA"/>
<path d="M53.5707 7.7478C53.957 7.7478 54.2702 7.43458 54.2702 7.04821C54.2702 6.66185 53.957 6.34863 53.5707 6.34863C53.1843 6.34863 52.8711 6.66185 52.8711 7.04821C52.8711 7.43458 53.1843 7.7478 53.5707 7.7478Z" fill="#DCCDAA"/>
<path d="M41.9414 17.1367L57.7699 12.0146" stroke="#DCCDAA" stroke-width="0.466386" stroke-miterlimit="10"/>
<path d="M41.5297 17.9304C41.916 17.9304 42.2292 17.6172 42.2292 17.2308C42.2292 16.8445 41.916 16.5312 41.5297 16.5312C41.1433 16.5312 40.8301 16.8445 40.8301 17.2308C40.8301 17.6172 41.1433 17.9304 41.5297 17.9304Z" fill="#DCCDAA"/>
<path d="M57.768 12.6775C58.1544 12.6775 58.4676 12.3643 58.4676 11.9779C58.4676 11.5915 58.1544 11.2783 57.768 11.2783C57.3817 11.2783 57.0685 11.5915 57.0685 11.9779C57.0685 12.3643 57.3817 12.6775 57.768 12.6775Z" fill="#DCCDAA"/>
<path d="M42.4141 10.8896L57.232 18.4582" stroke="#DCCDAA" stroke-width="0.466386" stroke-miterlimit="10"/>
<path d="M42.057 11.3679C42.4434 11.3679 42.7566 11.0547 42.7566 10.6683C42.7566 10.282 42.4434 9.96875 42.057 9.96875C41.6706 9.96875 41.3574 10.282 41.3574 10.6683C41.3574 11.0547 41.6706 11.3679 42.057 11.3679Z" fill="#DCCDAA"/>
<path d="M57.2504 19.1326C57.6367 19.1326 57.9499 18.8193 57.9499 18.433C57.9499 18.0466 57.6367 17.7334 57.2504 17.7334C56.864 17.7334 56.5508 18.0466 56.5508 18.433C56.5508 18.8193 56.864 19.1326 57.2504 19.1326Z" fill="#DCCDAA"/>
<path d="M237.295 78.9107L228.736 64.645" stroke="#BB2E26" stroke-width="0.466386" stroke-miterlimit="10"/>
<path d="M237.483 79.9871C237.869 79.9871 238.182 79.6738 238.182 79.2875C238.182 78.9011 237.869 78.5879 237.483 78.5879C237.096 78.5879 236.783 78.9011 236.783 79.2875C236.783 79.6738 237.096 79.9871 237.483 79.9871Z" fill="#BB2E26"/>
<path d="M228.7 65.3528C229.086 65.3528 229.399 65.0396 229.399 64.6532C229.399 64.2668 229.086 63.9536 228.7 63.9536C228.313 63.9536 228 64.2668 228 64.6532C228 65.0396 228.313 65.3528 228.7 65.3528Z" fill="#BB2E26"/>
<path d="M231.097 79.8552L235.135 63.7158" stroke="#BB2E26" stroke-width="0.466386" stroke-miterlimit="10"/>
<path d="M230.963 80.9558C231.349 80.9558 231.663 80.6426 231.663 80.2562C231.663 79.8699 231.349 79.5566 230.963 79.5566C230.577 79.5566 230.263 79.8699 230.263 80.2562C230.263 80.6426 230.577 80.9558 230.963 80.9558Z" fill="#BB2E26"/>
<path d="M235.104 64.3992C235.49 64.3992 235.803 64.0859 235.803 63.6996C235.803 63.3132 235.49 63 235.104 63C234.717 63 234.404 63.3132 234.404 63.6996C234.404 64.0859 234.717 64.3992 235.104 64.3992Z" fill="#BB2E26"/>
<path d="M226.051 76.1494L240.316 67.5908" stroke="#BB2E26" stroke-width="0.466386" stroke-miterlimit="10"/>
<path d="M225.67 77.0373C226.057 77.0373 226.37 76.7241 226.37 76.3378C226.37 75.9514 226.057 75.6382 225.67 75.6382C225.284 75.6382 224.971 75.9514 224.971 76.3378C224.971 76.7241 225.284 77.0373 225.67 77.0373Z" fill="#BB2E26"/>
<path d="M240.305 68.2575C240.691 68.2575 241.005 67.9443 241.005 67.558C241.005 67.1716 240.691 66.8584 240.305 66.8584C239.919 66.8584 239.605 67.1716 239.605 67.558C239.605 67.9443 239.919 68.2575 240.305 68.2575Z" fill="#BB2E26"/>
<path d="M225.1 69.959L241.239 73.9928" stroke="#BB2E26" stroke-width="0.466386" stroke-miterlimit="10"/>
<path d="M224.7 70.5193C225.086 70.5193 225.399 70.2061 225.399 69.8197C225.399 69.4333 225.086 69.1201 224.7 69.1201C224.313 69.1201 224 69.4333 224 69.8197C224 70.2061 224.313 70.5193 224.7 70.5193Z" fill="#BB2E26"/>
<path d="M241.256 74.6594C241.643 74.6594 241.956 74.3462 241.956 73.9598C241.956 73.5735 241.643 73.2603 241.256 73.2603C240.87 73.2603 240.557 73.5735 240.557 73.9598C240.557 74.3462 240.87 74.6594 241.256 74.6594Z" fill="#BB2E26"/>
<path d="M312.134 16.2715L296.584 22.179" stroke="#7CAAA3" stroke-width="0.466386" stroke-miterlimit="10"/>
<path d="M312.537 16.8523C312.924 16.8523 313.237 16.5391 313.237 16.1527C313.237 15.7663 312.924 15.4531 312.537 15.4531C312.151 15.4531 311.838 15.7663 311.838 16.1527C311.838 16.5391 312.151 16.8523 312.537 16.8523Z" fill="#7CAAA3"/>
<path d="M296.588 22.9153C296.975 22.9153 297.288 22.6021 297.288 22.2157C297.288 21.8293 296.975 21.5161 296.588 21.5161C296.202 21.5161 295.889 21.8293 295.889 22.2157C295.889 22.6021 296.202 22.9153 296.588 22.9153Z" fill="#7CAAA3"/>
<path d="M311.975 22.5306L296.801 15.7148" stroke="#7CAAA3" stroke-width="0.466386" stroke-miterlimit="10"/>
<path d="M312.348 23.4392C312.734 23.4392 313.048 23.126 313.048 22.7396C313.048 22.3532 312.734 22.04 312.348 22.04C311.962 22.04 311.648 22.3532 311.648 22.7396C311.648 23.126 311.962 23.4392 312.348 23.4392Z" fill="#7CAAA3"/>
<path d="M296.78 16.4431C297.166 16.4431 297.479 16.1299 297.479 15.7435C297.479 15.3572 297.166 15.0439 296.78 15.0439C296.393 15.0439 296.08 15.3572 296.08 15.7435C296.08 16.1299 296.393 16.4431 296.78 16.4431Z" fill="#7CAAA3"/>
<path d="M307.435 26.8513L301.524 11.2969" stroke="#7CAAA3" stroke-width="0.466386" stroke-miterlimit="10"/>
<path d="M307.551 27.9558C307.938 27.9558 308.251 27.6426 308.251 27.2562C308.251 26.8699 307.938 26.5566 307.551 26.5566C307.165 26.5566 306.852 26.8699 306.852 27.2562C306.852 27.6426 307.165 27.9558 307.551 27.9558Z" fill="#7CAAA3"/>
<path d="M301.487 12.0046C301.873 12.0046 302.186 11.6914 302.186 11.305C302.186 10.9187 301.873 10.6055 301.487 10.6055C301.1 10.6055 300.787 10.9187 300.787 11.305C300.787 11.6914 301.1 12.0046 301.487 12.0046Z" fill="#7CAAA3"/>
<path d="M301.174 26.6915L307.994 11.5176" stroke="#7CAAA3" stroke-width="0.466386" stroke-miterlimit="10"/>
<path d="M300.969 27.7595C301.355 27.7595 301.669 27.4463 301.669 27.0599C301.669 26.6736 301.355 26.3604 300.969 26.3604C300.583 26.3604 300.27 26.6736 300.27 27.0599C300.27 27.4463 300.583 27.7595 300.969 27.7595Z" fill="#7CAAA3"/>
<path d="M307.961 12.1926C308.348 12.1926 308.661 11.8794 308.661 11.493C308.661 11.1067 308.348 10.7935 307.961 10.7935C307.575 10.7935 307.262 11.1067 307.262 11.493C307.262 11.8794 307.575 12.1926 307.961 12.1926Z" fill="#7CAAA3"/>
<path d="M103.246 79.666L87.6953 85.5736" stroke="#7CAAA3" stroke-width="0.466386" stroke-miterlimit="10"/>
<path d="M103.649 80.2468C104.035 80.2468 104.348 79.9336 104.348 79.5472C104.348 79.1609 104.035 78.8477 103.649 78.8477C103.262 78.8477 102.949 79.1609 102.949 79.5472C102.949 79.9336 103.262 80.2468 103.649 80.2468Z" fill="#7CAAA3"/>
<path d="M87.6996 86.3098C88.0859 86.3098 88.3992 85.9966 88.3992 85.6102C88.3992 85.2239 88.0859 84.9106 87.6996 84.9106C87.3132 84.9106 87 85.2239 87 85.6102C87 85.9966 87.3132 86.3098 87.6996 86.3098Z" fill="#7CAAA3"/>
<path d="M103.086 85.9252L87.9121 79.1094" stroke="#7CAAA3" stroke-width="0.466386" stroke-miterlimit="10"/>
<path d="M103.459 86.8337C103.846 86.8337 104.159 86.5205 104.159 86.1341C104.159 85.7478 103.846 85.4346 103.459 85.4346C103.073 85.4346 102.76 85.7478 102.76 86.1341C102.76 86.5205 103.073 86.8337 103.459 86.8337Z" fill="#7CAAA3"/>
<path d="M87.891 79.8376C88.2773 79.8376 88.5906 79.5244 88.5906 79.1381C88.5906 78.7517 88.2773 78.4385 87.891 78.4385C87.5046 78.4385 87.1914 78.7517 87.1914 79.1381C87.1914 79.5244 87.5046 79.8376 87.891 79.8376Z" fill="#7CAAA3"/>
<path d="M98.5465 90.2458L92.6349 74.6914" stroke="#7CAAA3" stroke-width="0.466386" stroke-miterlimit="10"/>
<path d="M98.6626 91.3503C99.049 91.3503 99.3622 91.0371 99.3622 90.6508C99.3622 90.2644 99.049 89.9512 98.6626 89.9512C98.2762 89.9512 97.963 90.2644 97.963 90.6508C97.963 91.0371 98.2762 91.3503 98.6626 91.3503Z" fill="#7CAAA3"/>
<path d="M92.5981 75.3992C92.9845 75.3992 93.2977 75.0859 93.2977 74.6996C93.2977 74.3132 92.9845 74 92.5981 74C92.2118 74 91.8986 74.3132 91.8986 74.6996C91.8986 75.0859 92.2118 75.3992 92.5981 75.3992Z" fill="#7CAAA3"/>
<path d="M92.285 90.086L99.1049 74.9121" stroke="#7CAAA3" stroke-width="0.466386" stroke-miterlimit="10"/>
<path d="M92.0804 91.154C92.4668 91.154 92.78 90.8408 92.78 90.4545C92.78 90.0681 92.4668 89.7549 92.0804 89.7549C91.6941 89.7549 91.3809 90.0681 91.3809 90.4545C91.3809 90.8408 91.6941 91.154 92.0804 91.154Z" fill="#7CAAA3"/>
<path d="M99.0727 75.5871C99.4591 75.5871 99.7723 75.2739 99.7723 74.8876C99.7723 74.5012 99.4591 74.188 99.0727 74.188C98.6863 74.188 98.3731 74.5012 98.3731 74.8876C98.3731 75.2739 98.6863 75.5871 99.0727 75.5871Z" fill="#7CAAA3"/>
<path d="M89.0329 54.4013C89.9367 54.4013 90.6694 53.6686 90.6694 52.7649C90.6694 51.8611 89.9367 51.1284 89.0329 51.1284C88.1291 51.1284 87.3965 51.8611 87.3965 52.7649C87.3965 53.6686 88.1291 54.4013 89.0329 54.4013Z" fill="#DCCDAA"/>
<path d="M155.312 7.76214C156.216 7.76214 156.949 7.02948 156.949 6.1257C156.949 5.22192 156.216 4.48926 155.312 4.48926C154.408 4.48926 153.676 5.22192 153.676 6.1257C153.676 7.02948 154.408 7.76214 155.312 7.76214Z" fill="#DCCDAA"/>
<path d="M277.201 72.164C278.105 72.164 278.837 71.4313 278.837 70.5276C278.837 69.6238 278.105 68.8911 277.201 68.8911C276.297 68.8911 275.564 69.6238 275.564 70.5276C275.564 71.4313 276.297 72.164 277.201 72.164Z" fill="#DCCDAA"/>
<path d="M109.49 54.4013C110.394 54.4013 111.126 53.6686 111.126 52.7649C111.126 51.8611 110.394 51.1284 109.49 51.1284C108.586 51.1284 107.853 51.8611 107.853 52.7649C107.853 53.6686 108.586 54.4013 109.49 54.4013Z" fill="#7CAAA3"/>
<path d="M222.812 7.76214C223.716 7.76214 224.449 7.02948 224.449 6.1257C224.449 5.22192 223.716 4.48926 222.812 4.48926C221.908 4.48926 221.176 5.22192 221.176 6.1257C221.176 7.02948 221.908 7.76214 222.812 7.76214Z" fill="#7CAAA3"/>
<path d="M297.271 60.9467C298.175 60.9467 298.908 60.2141 298.908 59.3103C298.908 58.4065 298.175 57.6738 297.271 57.6738C296.367 57.6738 295.635 58.4065 295.635 59.3103C295.635 60.2141 296.367 60.9467 297.271 60.9467Z" fill="#7CAAA3"/>
<path d="M365.275 79.1401C366.179 79.1401 366.912 78.4074 366.912 77.5036C366.912 76.5998 366.179 75.8672 365.275 75.8672C364.371 75.8672 363.639 76.5998 363.639 77.5036C363.639 78.4074 364.371 79.1401 365.275 79.1401Z" fill="#7CAAA3"/>
<path d="M55.4859 112.495C56.3897 112.495 57.1223 111.762 57.1223 110.858C57.1223 109.954 56.3897 109.222 55.4859 109.222C54.5821 109.222 53.8494 109.954 53.8494 110.858C53.8494 111.762 54.5821 112.495 55.4859 112.495Z" fill="#7CAAA3"/>
<path d="M107.853 4.89886C108.757 4.89886 109.49 4.1662 109.49 3.26242C109.49 2.35864 108.757 1.62598 107.853 1.62598C106.949 1.62598 106.217 2.35864 106.217 3.26242C106.217 4.1662 106.949 4.89886 107.853 4.89886Z" fill="#BB2E26"/>
<path d="M178.628 8.98968C179.532 8.98968 180.265 8.25702 180.265 7.35324C180.265 6.44946 179.532 5.7168 178.628 5.7168C177.725 5.7168 176.992 6.44946 176.992 7.35324C176.992 8.25702 177.725 8.98968 178.628 8.98968Z" fill="#BB2E26"/>
<path d="M26.4411 31.8998C27.3449 31.8998 28.0776 31.1672 28.0776 30.2634C28.0776 29.3596 27.3449 28.627 26.4411 28.627C25.5373 28.627 24.8047 29.3596 24.8047 30.2634C24.8047 31.1672 25.5373 31.8998 26.4411 31.8998Z" fill="#BB2E26"/>
</g>
<defs>
<clipPath id="clip0_1_3548">
<rect width="375" height="185.484" fill="white"/>
</clipPath>
</defs>
</svg>
