<svg width="1920" height="312" viewBox="0 0 1920 312" fill="none" xmlns="http://www.w3.org/2000/svg">
  <g clip-path="url(#a)">
    <path d="M1714.86 192.245s-31.63 9.328-17.33 44.301c36.73-14.512 17.33-44.301 17.33-44.301Z" fill="#7CAAA3" />
    <path d="M1712.03 194.027s-23.89-22.729-47.03 7.137c30.93 24.558 47.03-7.137 47.03-7.137Z" fill="#7CAAA3" />
    <path d="M1709.07 192.469s7.74-32.065-29.7-37.164c-5.8 39.07 29.7 37.164 29.7 37.164Z" fill="#7CAAA3" />
    <path d="M1708.95 189.121s31.63-9.328 17.33-44.302c-36.73 14.513-17.33 44.302-17.33 44.302Z" fill="#7CAAA3" />
    <path d="M1711.78 187.338s23.89 22.73 47.03-7.136c-30.93-24.558-47.03 7.136-47.03 7.136Z" fill="#7CAAA3" />
    <path d="M1714.73 188.904s-7.73 32.065 29.7 37.165c5.8-39.07-29.7-37.165-29.7-37.165Z" fill="#7CAAA3" />
    <path
      d="M1712.77 214.025c.17-1.62.3-3.24.34-4.853.06-1.612.07-3.225-.04-4.806-.05-.795-.15-1.582-.29-2.353-.07-.386-.12-.772-.16-1.158-.06-.378-.1-.764-.13-1.149-.13-1.551-.29-3.04-.48-4.761l.2-.115c1.35 1.157 2.11 2.823 2.56 4.474.49 1.675.25 3.411.16 5.069-.1 1.675-.34 3.318-.67 4.938-.35 1.613-.73 3.217-1.27 4.776l-.22-.054v-.008Z"
      fill="#F6F4EE" />
    <path
      d="M1707.63 212.876c.76-1.428 1.48-2.878 2.07-4.36.62-1.473 1.14-2.978 1.55-4.482.4-1.52.45-3.063.68-4.506.22-1.474.27-2.885.08-4.59l.2-.116c1.37 1.149 1.98 3.055 2.03 4.799.02.887-.1 1.767-.35 2.592-.26.826-.56 1.62-.89 2.399-.63 1.559-1.4 3.033-2.28 4.429-.89 1.389-1.84 2.731-2.92 3.966l-.18-.139.01.008Z"
      fill="#F6F4EE" />
    <path
      d="M1702.9 210.823c1.2-1.01 2.32-2.121 3.32-3.31 1-1.18 1.89-2.43 2.66-3.734.18-.332.36-.671.52-1.003.16-.347.28-.694.42-1.041.15-.34.26-.687.4-1.026.12-.34.32-.664.43-1.011.63-1.343 1.04-2.731 1.71-4.298h.24c.15.394.25.803.35 1.219.05.209.09.417.12.633.02.208.02.417.03.633.01.424.02.856-.03 1.28-.06.417-.13.841-.22 1.258-.39 1.674-1.41 3.094-2.41 4.39-1.01 1.312-2.16 2.492-3.4 3.534-1.26 1.018-2.57 1.959-4 2.685l-.13-.193-.01-.016Z"
      fill="#F6F4EE" />
    <path
      d="M1701.26 205.631c1-.779 1.97-1.581 2.86-2.445.92-.857 1.78-1.744 2.6-2.655.83-.918 1.42-2.006 2.3-2.839.9-.833 1.75-1.697 2.94-2.453l.2.115c-.05.695-.18 1.389-.44 2.006-.11.317-.25.625-.39.926-.15.293-.33.579-.5.857-.35.563-.81 1.049-1.3 1.489l-1.53 1.234c-1.01.826-2.07 1.574-3.18 2.238-1.12.648-2.25 1.257-3.45 1.728l-.11-.201Z"
      fill="#F6F4EE" />
    <path
      d="M1701.54 209.628c1.14-1.011 2.23-2.091 3.28-3.202 1.05-1.103 2.06-2.253 3.01-3.441.93-1.204 1.76-2.461 2.63-3.704.84-1.257 1.61-2.546 2.35-3.896l.07.023c-.35 1.513-1 2.94-1.77 4.282-.8 1.335-1.8 2.523-2.81 3.688-2.04 2.315-4.28 4.429-6.71 6.304l-.04-.062-.01.008ZM1692.12 203.1c1.49-.655 2.96-1.35 4.38-2.121 1.42-.764 2.82-1.559 4.14-2.438.66-.448 1.3-.926 1.89-1.435.3-.255.61-.494.93-.718.3-.247.61-.463.93-.686 1.28-.888 2.49-1.767 3.88-2.801l.2.116c-.32 1.751-1.39 3.24-2.6 4.459-1.21 1.258-2.83 1.913-4.31 2.67-1.5.756-3.04 1.365-4.6 1.89-1.58.501-3.15.98-4.78 1.281l-.06-.224v.007Z"
      fill="#F6F4EE" />
    <path
      d="M1690.54 198.078c1.62-.047 3.24-.155 4.82-.378 1.59-.209 3.15-.494 4.66-.895 1.51-.417 2.87-1.142 4.23-1.667 1.39-.548 2.64-1.211 4.02-2.222l.2.116c-.31 1.759-1.65 3.24-3.14 4.158-.76.463-1.58.795-2.42.996-.85.185-1.68.324-2.52.432-1.67.231-3.33.301-4.98.239-1.65-.085-3.28-.224-4.89-.548l.02-.231Z"
      fill="#F6F4EE" />
    <path
      d="M1689.96 192.955c1.48.532 2.99.949 4.53 1.219 1.52.277 3.05.432 4.56.439.38-.015.76-.03 1.13-.054.37-.038.74-.108 1.11-.162.37-.031.73-.115 1.09-.169.35-.062.73-.054 1.09-.132 1.48-.131 2.88-.47 4.58-.663l.12.201c-.27.331-.57.624-.88.918-.17.139-.32.285-.49.416-.17.124-.35.224-.53.34-.36.223-.73.447-1.12.617-.39.154-.8.301-1.2.432-1.65.494-3.38.324-5.02.1-1.64-.216-3.23-.617-4.75-1.172-1.51-.587-2.98-1.25-4.33-2.13l.11-.2Z"
      fill="#F6F4EE" />
    <path
      d="M1693.64 188.943c1.17.478 2.35.91 3.55 1.257 1.19.363 2.4.664 3.6.919 1.2.262 2.44.223 3.61.578 1.17.363 2.34.664 3.6 1.32v.231c-.64.301-1.3.532-1.96.617-.33.062-.66.093-1 .124-.33.007-.66 0-1 0-.66-.023-1.31-.178-1.93-.378l-1.84-.71c-1.22-.463-2.4-1.003-3.52-1.628-1.12-.648-2.22-1.319-3.23-2.122l.12-.2v-.008Z"
      fill="#F6F4EE" />
    <path
      d="M1690.31 191.181c1.45.486 2.93.887 4.42 1.234 1.48.355 2.97.656 4.48.88 1.5.208 3.02.301 4.52.424 1.51.1 3.01.123 4.55.085l.02.077c-1.48.455-3.05.602-4.6.61-1.55-.024-3.09-.294-4.6-.587-3.02-.609-5.97-1.497-8.81-2.654l.03-.069h-.01ZM1691.26 179.762c1.31.964 2.65 1.89 4.02 2.731 1.38.849 2.76 1.666 4.18 2.376.72.347 1.45.656 2.19.926.37.131.73.278 1.08.44.36.139.71.301 1.05.463 1.41.663 2.78 1.273 4.37 1.959v.232c-1.68.594-3.5.409-5.16-.023-1.7-.417-3.07-1.489-4.47-2.4-1.39-.918-2.7-1.952-3.94-3.047-1.23-1.111-2.42-2.238-3.49-3.488l.16-.169h.01Z"
      fill="#F6F4EE" />
    <path
      d="M1694.82 175.889c.85 1.373 1.75 2.716 2.74 3.981.97 1.273 2 2.477 3.11 3.588 1.12 1.103 2.43 1.913 3.56 2.839 1.17.926 2.36 1.674 3.94 2.361v.231c-1.69.61-3.65.193-5.18-.64-.78-.424-1.48-.964-2.07-1.597-.58-.64-1.12-1.296-1.63-1.967-1.04-1.327-1.93-2.732-2.7-4.19-.74-1.466-1.45-2.955-1.97-4.506l.21-.092-.01-.008Z"
      fill="#F6F4EE" />
    <path
      d="M1698.96 172.818c.28 1.551.67 3.071 1.21 4.529.52 1.458 1.16 2.863 1.9 4.174.2.317.4.641.61.949.23.301.47.587.7.88.21.301.46.571.69.856.23.278.41.61.66.88.85 1.219 1.84 2.26 2.86 3.634l-.12.2c-.41-.062-.82-.177-1.23-.301-.2-.069-.41-.131-.61-.208-.19-.093-.37-.193-.56-.293-.37-.201-.76-.409-1.1-.664-.33-.262-.66-.54-.98-.825-1.25-1.173-1.97-2.77-2.59-4.29-.63-1.528-1.08-3.109-1.36-4.706-.25-1.605-.41-3.202-.32-4.815h.24Z"
      fill="#F6F4EE" />
    <path
      d="M1704.28 173.998c.18 1.25.39 2.492.69 3.704.28 1.219.62 2.407 1 3.58.38 1.172 1.03 2.229 1.3 3.41.28 1.196.6 2.353.66 3.773l-.2.115c-.58-.393-1.11-.856-1.51-1.381-.22-.254-.42-.532-.61-.802-.17-.286-.33-.571-.49-.864-.32-.587-.5-1.219-.64-1.867l-.3-1.952c-.21-1.289-.33-2.577-.36-3.873 0-1.297.04-2.577.24-3.85h.23l-.01.007Z"
      fill="#F6F4EE" />
    <path
      d="M1700.68 172.24c.3 1.496.7 2.978 1.14 4.436.43 1.466.92 2.909 1.47 4.32.57 1.412 1.25 2.762 1.9 4.128.67 1.358 1.4 2.67 2.2 3.989l-.06.046c-1.14-1.057-2.05-2.338-2.83-3.68-.75-1.358-1.29-2.816-1.79-4.274-.98-2.924-1.69-5.926-2.1-8.965l.07-.016v.016ZM1711.04 167.34c-.18 1.62-.31 3.24-.35 4.853-.06 1.612-.06 3.225.04 4.807.05.794.15 1.581.29 2.353.07.386.12.771.16 1.157.06.378.1.764.13 1.15.13 1.55.29 3.039.48 4.76l-.2.116c-1.35-1.158-2.1-2.824-2.56-4.475-.49-1.674-.25-3.41-.15-5.069.09-1.674.34-3.318.66-4.938.35-1.612.73-3.217 1.27-4.776l.23.054v.008Z"
      fill="#F6F4EE" />
    <path
      d="M1716.17 168.497c-.76 1.428-1.48 2.878-2.07 4.359-.62 1.474-1.14 2.979-1.55 4.483-.39 1.52-.45 3.063-.68 4.506-.22 1.473-.27 2.885-.08 4.59l-.2.116c-1.37-1.149-1.98-3.055-2.03-4.799-.02-.887.1-1.767.35-2.592.26-.826.56-1.62.89-2.4.63-1.558 1.4-3.032 2.28-4.428.9-1.389 1.84-2.731 2.92-3.966l.18.139-.01-.008Z"
      fill="#F6F4EE" />
    <path
      d="M1720.91 170.542c-1.2 1.011-2.32 2.122-3.32 3.31-1 1.181-1.89 2.43-2.67 3.734-.17.332-.35.672-.51 1.003-.16.348-.28.695-.42 1.042-.15.339-.26.687-.4 1.026-.12.34-.32.664-.43 1.011-.63 1.342-1.04 2.731-1.71 4.297h-.24c-.15-.393-.25-.802-.35-1.219-.05-.208-.09-.416-.12-.633-.02-.208-.02-.416-.03-.632-.01-.424-.02-.857.03-1.281.06-.417.13-.841.22-1.257.39-1.675 1.41-3.094 2.41-4.39 1.01-1.312 2.16-2.493 3.4-3.534 1.26-1.019 2.57-1.96 4-2.685l.13.193.01.015Z"
      fill="#F6F4EE" />
    <path
      d="M1722.54 175.742c-1 .779-1.97 1.581-2.86 2.445-.91.857-1.78 1.744-2.59 2.654-.84.919-1.42 2.006-2.31 2.84-.9.833-1.75 1.697-2.94 2.453l-.2-.116c.05-.694.18-1.388.44-2.006.11-.316.25-.625.39-.925.16-.294.33-.579.5-.857.35-.563.81-1.049 1.3-1.489l1.53-1.234c1.02-.826 2.07-1.574 3.18-2.238 1.12-.648 2.25-1.257 3.45-1.728l.11.201Z"
      fill="#F6F4EE" />
    <path
      d="M1722.27 171.745c-1.14 1.011-2.23 2.091-3.28 3.202-1.05 1.104-2.06 2.253-3.01 3.441-.93 1.204-1.76 2.461-2.63 3.704-.84 1.257-1.61 2.546-2.35 3.896l-.07-.023c.35-1.513 1-2.94 1.77-4.282.8-1.335 1.8-2.523 2.81-3.688 2.04-2.315 4.28-4.429 6.71-6.304l.04.062.01-.008ZM1731.69 178.265c-1.49.656-2.96 1.35-4.38 2.122-1.42.763-2.82 1.558-4.14 2.438-.66.447-1.3.925-1.89 1.435-.3.254-.61.493-.93.717-.3.247-.61.463-.93.687-1.27.887-2.49 1.767-3.88 2.8l-.2-.115c.32-1.752 1.39-3.241 2.6-4.46 1.21-1.257 2.83-1.913 4.31-2.669 1.5-.756 3.04-1.366 4.61-1.89 1.57-.502 3.14-.98 4.77-1.281l.06.224v-.008Z"
      fill="#F6F4EE" />
    <path
      d="M1733.26 183.295c-1.62.047-3.23.155-4.81.378-1.59.209-3.15.494-4.66.895-1.52.417-2.87 1.142-4.24 1.667-1.39.548-2.63 1.211-4.01 2.222l-.2-.116c.31-1.759 1.65-3.24 3.14-4.158.75-.463 1.57-.795 2.41-.996.85-.185 1.68-.324 2.53-.432 1.66-.231 3.33-.301 4.97-.239 1.65.085 3.28.224 4.89.548l-.02.231Z"
      fill="#F6F4EE" />
    <path
      d="M1733.85 188.419c-1.48-.533-3-.949-4.53-1.219-1.53-.278-3.06-.432-4.57-.44-.38.015-.75.031-1.13.054-.37.038-.74.108-1.11.162-.37.031-.72.116-1.08.17-.36.061-.74.054-1.09.131-1.48.131-2.89.47-4.58.663l-.12-.2c.26-.332.57-.625.88-.918.16-.139.32-.286.48-.417.17-.124.36-.224.54-.34.36-.223.73-.447 1.12-.617.39-.154.79-.301 1.2-.432 1.64-.494 3.38-.324 5.01-.1 1.65.216 3.24.617 4.76 1.173 1.51.586 2.98 1.249 4.33 2.129l-.11.201Z"
      fill="#F6F4EE" />
    <path
      d="M1730.17 192.423c-1.17-.479-2.36-.911-3.55-1.258-1.2-.362-2.4-.663-3.6-.918-1.21-.262-2.45-.224-3.62-.579-1.17-.362-2.33-.663-3.59-1.319v-.231c.63-.301 1.3-.533 1.95-.618.33-.061.67-.092 1-.123.34-.008.67 0 1 0 .66.023 1.31.177 1.94.378l1.83.71c1.22.463 2.4 1.003 3.53 1.628 1.12.648 2.21 1.319 3.22 2.121l-.12.201.01.008Z"
      fill="#F6F4EE" />
    <path
      d="M1733.49 190.193c-1.45-.486-2.92-.888-4.41-1.235-1.48-.355-2.98-.656-4.48-.879-1.51-.209-3.02-.301-4.52-.425-1.52-.1-3.01-.123-4.56-.085l-.01-.077c1.48-.455 3.05-.601 4.6-.609 1.55.023 3.08.293 4.59.586 3.03.61 5.98 1.497 8.82 2.654l-.04.07h.01ZM1732.55 201.611c-1.31-.964-2.65-1.89-4.03-2.731-1.37-.849-2.76-1.666-4.18-2.376-.72-.347-1.44-.656-2.18-.926-.37-.131-.74-.278-1.08-.44-.36-.139-.71-.301-1.06-.463-1.4-.663-2.78-1.273-4.37-1.959v-.232c1.69-.594 3.51-.409 5.17.023 1.69.417 3.07 1.489 4.46 2.4 1.4.918 2.7 1.952 3.95 3.047 1.22 1.111 2.42 2.238 3.49 3.488l-.16.169h-.01ZM1728.99 205.484c-.85-1.373-1.76-2.716-2.74-3.981-.98-1.273-2.01-2.477-3.11-3.588-1.12-1.103-2.43-1.913-3.57-2.839-1.16-.926-2.36-1.674-3.93-2.361v-.231c1.68-.61 3.64-.193 5.17.64.78.425 1.49.965 2.07 1.597.58.641 1.13 1.297 1.64 1.968 1.03 1.327 1.93 2.731 2.69 4.189.75 1.466 1.45 2.955 1.98 4.506l-.21.092.01.008Z"
      fill="#F6F4EE" />
    <path
      d="M1724.84 208.555c-.28-1.551-.67-3.071-1.21-4.529-.52-1.458-1.16-2.862-1.9-4.174-.2-.316-.4-.64-.61-.949-.22-.301-.46-.586-.69-.879-.22-.301-.46-.571-.7-.857-.23-.278-.4-.609-.65-.879-.85-1.219-1.85-2.261-2.86-3.634l.11-.201c.42.062.83.178 1.24.301.2.069.4.131.61.208.19.093.37.193.56.293.37.201.75.409 1.09.664.34.262.66.54.98.826 1.25 1.172 1.98 2.769 2.6 4.289.63 1.528 1.08 3.11 1.35 4.707.25 1.604.41 3.201.32 4.814H1724.84Z"
      fill="#F6F4EE" />
    <path
      d="M1719.52 207.367c-.17-1.25-.38-2.492-.68-3.703-.29-1.219-.63-2.407-1-3.58-.38-1.173-1.04-2.23-1.31-3.41-.28-1.196-.59-2.354-.65-3.773l.2-.116c.57.394 1.11.857 1.51 1.381.21.255.41.533.6.803.18.285.33.571.49.864.32.586.51 1.219.64 1.867l.31 1.952c.2 1.288.33 2.577.35 3.873 0 1.296-.03 2.577-.23 3.85h-.23v-.008Z"
      fill="#F6F4EE" />
    <path
      d="M1723.13 209.134c-.3-1.497-.7-2.978-1.13-4.436-.44-1.466-.92-2.909-1.48-4.321-.57-1.412-1.25-2.762-1.9-4.128-.67-1.357-1.39-2.669-2.2-3.988l.07-.047c1.13 1.057 2.04 2.338 2.82 3.681.76 1.357 1.29 2.816 1.79 4.274.98 2.924 1.69 5.925 2.11 8.965l-.08.015v-.015Z"
      fill="#F6F4EE" />
    <path
      d="M1711.9 200.47c5.41 0 9.79-4.38 9.79-9.783s-4.38-9.783-9.79-9.783c-5.4 0-9.78 4.38-9.78 9.783s4.38 9.783 9.78 9.783Z"
      fill="#50716D" />
    <path
      d="M1710.5 187.463c.42 0 .77-.346.77-.772 0-.427-.35-.773-.77-.773-.43 0-.77.346-.77.773 0 .426.34.772.77.772ZM1707.41 195.178c.43 0 .78-.346.78-.772 0-.426-.35-.772-.78-.772-.42 0-.77.346-.77.772 0 .426.35.772.77.772ZM1707.41 190.162c.22 0 .39-.173.39-.386 0-.213-.17-.386-.39-.386-.21 0-.38.173-.38.386 0 .213.17.386.38.386ZM1711.66 192.863c.21 0 .38-.173.38-.386 0-.213-.17-.386-.38-.386-.22 0-.39.173-.39.386 0 .213.17.386.39.386ZM1714.74 193.634c.22 0 .39-.172.39-.386 0-.213-.17-.386-.39-.386-.21 0-.38.173-.38.386 0 .214.17.386.38.386ZM1713.2 197.492c.21 0 .38-.172.38-.386 0-.213-.17-.386-.38-.386-.22 0-.39.173-.39.386 0 .214.17.386.39.386ZM1712.43 189.584c.1 0 .19-.087.19-.193 0-.107-.09-.193-.19-.193-.11 0-.2.086-.2.193 0 .106.09.193.2.193ZM1710.11 196.528c.11 0 .19-.087.19-.193 0-.107-.08-.193-.19-.193s-.19.086-.19.193c0 .106.08.193.19.193ZM1705.48 191.898c.11 0 .2-.086.2-.193 0-.106-.09-.193-.2-.193-.1 0-.19.087-.19.193 0 .107.09.193.19.193ZM1707.03 185.726c.1 0 .19-.086.19-.193 0-.107-.09-.193-.19-.193-.11 0-.2.086-.2.193 0 .107.09.193.2.193Z"
      fill="#F6F4EE" />
    <path d="M426.941 108.92s-47.272 13.941-25.901 66.189c54.887-21.68 25.901-66.189 25.901-66.189Z" fill="#BB2E26" />
    <path d="M423.994 111.365s-43.283-23.562-65.118 28.493c54.146 23.478 65.118-28.493 65.118-28.493Z" fill="#BB2E26" />
    <path d="M420.189 111.011S406.248 63.7393 354 85.1106c21.68 54.8864 66.189 25.9004 66.189 25.9004Z"
      fill="#BB2E26" />
    <path d="M417.744 108.063s23.563-43.2824-28.492-65.1167c-23.478 54.1459 28.492 65.1167 28.492 65.1167Z"
      fill="#BB2E26" />
    <path d="M418.099 104.252s47.272-13.9416 25.9-66.1895c-54.886 21.68-25.9 66.1895-25.9 66.1895Z" fill="#BB2E26" />
    <path d="M421.043 101.814s43.283 23.562 65.117-28.4927c-54.145-23.4776-65.117 28.4927-65.117 28.4927Z"
      fill="#BB2E26" />
    <path d="M424.856 102.169s13.942 47.271 66.19 25.9c-21.68-54.8865-66.19-25.9-66.19-25.9Z" fill="#BB2E26" />
    <path d="M427.294 105.108s-23.562 43.283 28.493 65.117c23.478-54.145-28.493-65.117-28.493-65.117Z" fill="#BB2E26" />
    <path
      d="M423.859 141.479c.687-4.776 1.065-9.645.872-14.451-.401-4.799-.91-9.343-1.998-14.111l.201-.116c3.471 3.819 4.065 9.312 3.649 14.234-.262 4.923-1.096 9.783-2.5 14.498l-.224-.054Z"
      fill="#DCCDAA" />
    <path
      d="M416.174 139.781c4.645-8.055 8.471-17.436 6.558-26.857l.201-.115c5.37 6.234.972 14.975-2.423 21.085-1.265 2.091-2.608 4.128-4.151 6.018l-.185-.138v.007Z"
      fill="#DCCDAA" />
    <path
      d="M409.093 136.733c4.089-3.232 7.692-7.213 10.115-11.819.702-1.536 1.357-3.11 1.959-4.676.887-2.083 1.381-4.259 2.076-6.604h.231c1.312 4.845-.494 10.022-3.557 13.802-2.901 3.858-6.527 7.122-10.708 9.49l-.124-.193h.008Z"
      fill="#DCCDAA" />
    <path
      d="M406.647 128.964c4.637-3.163 8.518-7.244 12.021-11.557 1.296-1.312 2.476-2.701 4.004-3.997l.2.116c-.794 3.888-3.417 7.067-6.496 9.428-2.908 2.5-6.133 4.621-9.613 6.211l-.108-.201h-.008Z"
      fill="#DCCDAA" />
    <path
      d="M407.04 134.905c6.836-6.01 12.785-13.108 16.835-21.294l.07.023c-1.243 4.459-3.92 8.379-6.944 11.82-3.017 3.371-6.388 6.905-9.968 9.443l.007.008ZM398.794 132.212c3.866-2.893 7.569-6.064 10.833-9.605 3.117-3.681 5.964-7.253 8.564-11.388l.223.061c-.246 5.162-3.711 9.459-7.483 12.646-3.665 3.294-7.7 6.141-12.021 8.487l-.123-.201h.007Z"
      fill="#DCCDAA" />
    <path
      d="M394.569 125.577c8.981-2.415 18.324-6.334 23.632-14.358l.224.061c-.617 8.202-9.899 11.273-16.626 13.201-2.377.587-4.768 1.073-7.191 1.32l-.039-.232v.008Z"
      fill="#DCCDAA" />
    <path
      d="M391.715 118.41c5.177.601 10.539.339 15.507-1.204 1.582-.586 3.156-1.242 4.691-1.921 2.106-.849 3.981-2.037 6.134-3.202l.17.162c-2.5 4.359-7.438 6.743-12.283 7.252-4.776.679-9.652.417-14.281-.864l.054-.223h.008Z"
      fill="#DCCDAA" />
    <path
      d="M395.479 111.196c5.517 1.049 11.149.902 16.673.324 1.851-.008 3.665-.162 5.655 0l.062.223c-3.31 2.192-7.415 2.585-11.264 2.076-3.827-.293-7.608-1.073-11.188-2.407l.07-.224-.008.008Z"
      fill="#DCCDAA" />
    <path
      d="M391.551 115.671c9.081.586 18.309-.224 26.958-3.156l.031.07c-4.028 2.276-8.696 3.147-13.271 3.448-4.521.255-9.405.363-13.725-.37l.007.008ZM387.623 107.932c4.776.687 9.644 1.065 14.451.872 4.799-.401 9.343-.91 14.111-1.998l.116.2c-3.819 3.472-9.313 4.066-14.235 3.65-4.922-.263-9.783-1.096-14.497-2.5l.054-.224Z"
      fill="#DCCDAA" />
    <path
      d="M389.329 100.248c8.055 4.644 17.436 8.471 26.857 6.558l.115.2c-6.234 5.37-14.975.972-21.085-2.422-2.091-1.266-4.128-2.608-6.018-4.151l.139-.185h-.008Z"
      fill="#DCCDAA" />
    <path
      d="M392.374 93.1571c3.233 4.0891 7.214 7.6919 11.82 10.1149 1.536.702 3.109 1.358 4.676 1.96 2.083.887 4.259 1.381 6.604 2.075v.231c-4.845 1.312-10.022-.493-13.803-3.556-3.857-2.901-7.121-6.5275-9.489-10.7091l.192-.1235v.0077Z"
      fill="#DCCDAA" />
    <path
      d="M400.136 90.7192c3.163 4.6369 7.245 8.5177 11.557 12.0208 1.312 1.296 2.701 2.476 3.997 4.004l-.116.2c-3.888-.794-7.067-3.417-9.428-6.496-2.5-2.9084-4.621-6.1334-6.211-9.613l.201-.1081v-.0077Z"
      fill="#DCCDAA" />
    <path
      d="M394.205 91.1127c6.01 6.8357 13.108 12.7843 21.294 16.8343l-.023.07c-4.459-1.242-8.379-3.919-11.82-6.944-3.371-3.0165-6.905-6.3881-9.443-9.968l-.008.0077ZM396.898 82.8651c2.893 3.8654 6.064 7.5687 9.605 10.8323 3.681 3.117 7.253 5.9639 11.388 8.5636l-.062.224c-5.161-.247-9.459-3.7109-12.645-7.4837-3.294-3.6648-6.141-7.6999-8.487-12.0204l.201-.1235v.0077Z"
      fill="#DCCDAA" />
    <path
      d="M403.535 78.6372c2.414 8.9806 6.334 18.3238 14.358 23.6318l-.062.224c-8.201-.617-11.272-9.8988-13.201-16.6266-.586-2.3763-1.072-4.768-1.319-7.1906l.231-.0386h-.007Z"
      fill="#DCCDAA" />
    <path
      d="M410.701 75.7824c-.601 5.177-.339 10.5391 1.204 15.5078.586 1.5816 1.242 3.1555 1.921 4.6909.849 2.1062 2.037 3.9811 3.202 6.1339l-.162.169c-4.359-2.4993-6.743-7.4371-7.252-12.2823-.679-4.7758-.417-9.6518.864-14.281l.223.054v.0077Z"
      fill="#DCCDAA" />
    <path
      d="M417.914 79.5397c-1.049 5.5165-.902 11.1486-.324 16.6728.008 1.8517.162 3.6647 0 5.6555l-.223.062c-2.192-3.3103-2.585-7.4149-2.076-11.2648.293-3.8268 1.073-7.6073 2.407-11.1872l.224.0695-.008-.0078Z"
      fill="#DCCDAA" />
    <path
      d="M413.44 75.6205c-.586 9.0809.224 18.3084 3.156 26.9575l-.07.031c-2.276-4.0278-3.147-8.6955-3.448-13.2707-.255-4.5212-.363-9.4049.37-13.7255l-.008.0077ZM421.177 71.6936c-.687 4.7758-1.065 9.6442-.872 14.4508.401 4.7989.911 9.3432 1.998 14.1116l-.2.115c-3.472-3.8187-4.066-9.312-3.649-14.2343.262-4.9224 1.095-9.783 2.499-14.4971l.224.054Z"
      fill="#DCCDAA" />
    <path
      d="M428.862 73.3987c-4.644 8.0548-8.471 17.4366-6.558 26.8573l-.2.115c-5.37-6.2336-.973-14.975 2.422-21.0855 1.265-2.0908 2.608-4.1277 4.151-6.0179l.185.1388v-.0077Z"
      fill="#DCCDAA" />
    <path
      d="M435.953 76.4463c-4.089 3.2327-7.692 7.2138-10.115 11.8198-.702 1.5354-1.358 3.1093-1.959 4.6755-.888 2.0831-1.382 4.2588-2.076 6.6043h-.231c-1.312-4.8452.493-10.0222 3.556-13.8027 2.901-3.8576 6.528-7.1212 10.709-9.4898l.124.1929h-.008Z"
      fill="#DCCDAA" />
    <path
      d="M438.388 84.2079c-4.637 3.1633-8.517 7.2447-12.02 11.5575-1.296 1.3116-2.477 2.7004-4.004 3.9965l-.201-.1157c.795-3.8885 3.418-7.0672 6.496-9.4281 2.909-2.4997 6.134-4.6214 9.614-6.2108l.108.2006h.007Z"
      fill="#DCCDAA" />
    <path
      d="M437.998 78.2671c-6.836 6.0102-12.785 13.1083-16.835 21.2942l-.069-.0232c1.242-4.4594 3.919-8.3788 6.943-11.8198 3.017-3.3716 6.389-6.9052 9.968-9.4435l-.007-.0077ZM446.243 80.9672c-3.866 2.8932-7.569 6.0642-10.833 9.6055-3.117 3.6802-5.964 7.2524-8.564 11.3883l-.223-.062c.246-5.1617 3.711-9.4592 7.483-12.6456 3.665-3.2944 7.7-6.1414 12.021-8.4868l.123.2006h-.007Z"
      fill="#DCCDAA" />
    <path
      d="M450.472 87.6022c-8.981 2.4149-18.324 6.3342-23.632 14.3578l-.224-.061c.617-8.2018 9.899-11.2724 16.627-13.2013 2.376-.5863 4.768-1.0724 7.19-1.3193l.039.2315v-.0077Z"
      fill="#DCCDAA" />
    <path
      d="M453.327 94.77c-5.177-.6018-10.539-.3395-15.508 1.2036-1.581.5863-3.155 1.2421-4.691 1.9211-2.106.8487-3.981 2.0368-6.133 3.2023l-.17-.163c2.5-4.3586 7.437-6.7427 12.283-7.2519 4.775-.6789 9.652-.4166 14.281.8641l-.054.2238h-.008Z"
      fill="#DCCDAA" />
    <path
      d="M449.568 101.983c-5.516-1.049-11.149-.902-16.673-.324-1.851.008-3.664.162-5.655 0l-.062-.223c3.31-2.1914 7.415-2.5849 11.265-2.0757 3.826.2932 7.607 1.0727 11.187 2.4067l-.07.224.008-.008Z"
      fill="#DCCDAA" />
    <path
      d="M453.489 97.5086c-9.081-.5863-18.309.2238-26.958 3.1554l-.031-.069c4.028-2.2763 8.696-3.1481 13.271-3.449 4.521-.2546 9.405-.3626 13.725.3704l-.007-.0078ZM457.416 105.247c-4.776-.687-9.644-1.065-14.451-.872-4.799.401-9.343.911-14.111 1.999l-.116-.201c3.819-3.472 9.313-4.066 14.235-3.649 4.922.262 9.783 1.095 14.497 2.499l-.054.224Z"
      fill="#DCCDAA" />
    <path
      d="M455.711 112.932c-8.055-4.645-17.437-8.472-26.857-6.558l-.116-.201c6.234-5.37 14.976-.972 21.086 2.423 2.091 1.265 4.128 2.607 6.018 4.15l-.139.186h.008Z"
      fill="#DCCDAA" />
    <path
      d="M452.664 120.014c-3.233-4.089-7.214-7.692-11.82-10.115-1.536-.702-3.11-1.358-4.676-1.959-2.083-.888-4.259-1.381-6.604-2.076v-.231c4.845-1.312 10.022.494 13.803 3.557 3.857 2.901 7.121 6.527 9.489 10.708l-.192.124v-.008Z"
      fill="#DCCDAA" />
    <path
      d="M444.903 122.452c-3.164-4.637-7.245-8.518-11.558-12.021-1.311-1.296-2.7-2.476-3.996-4.004l.115-.2c3.889.794 7.068 3.417 9.428 6.496 2.5 2.909 4.622 6.133 6.211 9.613l-.2.108v.008Z"
      fill="#DCCDAA" />
    <path
      d="M450.842 122.066c-6.01-6.835-13.108-12.784-21.294-16.834l.023-.07c4.459 1.242 8.379 3.919 11.82 6.944 3.371 3.017 6.905 6.388 9.443 9.968l.008-.008ZM448.146 130.314c-2.894-3.865-6.065-7.568-9.606-10.832-3.68-3.117-7.252-5.964-11.388-8.564l.062-.224c5.161.247 9.459 3.711 12.645 7.484 3.295 3.665 6.142 7.7 8.487 12.021l-.2.123v-.008Z"
      fill="#DCCDAA" />
    <path
      d="M441.51 134.543c-2.414-8.981-6.334-18.324-14.358-23.632l.062-.224c8.201.617 11.272 9.899 13.201 16.626.586 2.377 1.072 4.769 1.319 7.191l-.231.039h.007Z"
      fill="#DCCDAA" />
    <path
      d="M434.343 137.397c.602-5.177.339-10.539-1.204-15.508-.586-1.581-1.242-3.155-1.921-4.691-.849-2.106-2.037-3.981-3.202-6.133l.162-.17c4.359 2.5 6.743 7.438 7.253 12.283.679 4.776.416 9.652-.864 14.281l-.224-.054v-.008Z"
      fill="#DCCDAA" />
    <path
      d="M427.128 133.632c1.049-5.516.903-11.149.324-16.673-.008-1.851-.162-3.665 0-5.655l.224-.062c2.191 3.31 2.584 7.415 2.075 11.265-.293 3.826-1.072 7.607-2.407 11.187l-.224-.07.008.008Z"
      fill="#DCCDAA" />
    <path
      d="M431.602 137.559c.587-9.081-.224-18.308-3.155-26.957l.069-.031c2.276 4.027 3.148 8.695 3.449 13.27.254 4.521.362 9.405-.371 13.726l.008-.008Z"
      fill="#DCCDAA" />
    <path
      d="M422.519 121.21c8.075 0 14.62-6.546 14.62-14.62 0-8.0749-6.545-14.6208-14.62-14.6208s-14.621 6.5459-14.621 14.6208c0 8.074 6.546 14.62 14.621 14.62Z"
      fill="#F6F4EE" />
    <path
      d="M420.427 101.768c.635 0 1.15-.515 1.15-1.15 0-.6346-.515-1.1492-1.15-1.1492-.635 0-1.149.5146-1.149 1.1492 0 .635.514 1.15 1.149 1.15ZM415.815 113.294c.635 0 1.149-.514 1.149-1.149s-.514-1.15-1.149-1.15-1.15.515-1.15 1.15c0 .635.515 1.149 1.15 1.149ZM415.816 105.804c.32 0 .579-.259.579-.579 0-.32-.259-.579-.579-.579-.32 0-.579.259-.579.579 0 .32.259.579.579.579ZM422.157 109.839c.32 0 .579-.259.579-.579 0-.32-.259-.579-.579-.579-.32 0-.579.259-.579.579 0 .32.259.579.579.579ZM426.763 110.996c.32 0 .579-.259.579-.579 0-.32-.259-.579-.579-.579-.32 0-.579.259-.579.579 0 .32.259.579.579.579ZM424.463 116.759c.32 0 .579-.259.579-.579 0-.32-.259-.579-.579-.579-.32 0-.579.259-.579.579 0 .32.259.579.579.579ZM423.305 104.939c.158 0 .286-.128.286-.286 0-.157-.128-.285-.286-.285-.157 0-.285.128-.285.285 0 .158.128.286.285.286ZM419.849 115.309c.158 0 .286-.128.286-.286 0-.158-.128-.286-.286-.286-.157 0-.285.128-.285.286 0 .158.128.286.285.286ZM412.931 108.396c.157 0 .285-.128.285-.286 0-.158-.128-.286-.285-.286-.158 0-.286.128-.286.286 0 .158.128.286.286.286ZM415.237 99.1681c.158 0 .286-.1279.286-.2857s-.128-.2857-.286-.2857c-.158 0-.286.1279-.286.2857s.128.2857.286.2857Z"
      fill="#BB2E26" />
    <path d="M1528.15 38.5566s6.95 36.2619 20.83 42.4341" stroke="#50716D" stroke-width="3.85765"
      stroke-miterlimit="10" />
    <path d="M1535.07 61.6637s14.21 6.8512 26.64-1.8903M1534.87 60.6685s1.27 15.0293-11.52 23.2384" stroke="#50716D"
      stroke-width="3.85765" stroke-miterlimit="10" />
    <path
      d="M1564.8 70.189c4.9 0 8.87-3.9724 8.87-8.8726s-3.97-8.8726-8.87-8.8726c-4.9 0-8.87 3.9724-8.87 8.8726s3.97 8.8726 8.87 8.8726ZM1550.14 90.2491c4.9 0 8.87-3.9724 8.87-8.8726s-3.97-8.8726-8.87-8.8726c-4.9 0-8.87 3.9724-8.87 8.8726s3.97 8.8726 8.87 8.8726ZM1525.45 94.8785c4.9 0 8.87-3.9724 8.87-8.8726s-3.97-8.8726-8.87-8.8726c-4.9 0-8.87 3.9724-8.87 8.8726s3.97 8.8726 8.87 8.8726Z"
      fill="#BB2E26" />
    <path d="M1536.4 20.0396s-39.95-7.7693-51.06 2.6078" stroke="#50716D" stroke-width="3.85765"
      stroke-miterlimit="10" />
    <path d="M1508.57 17.3857s-11.86 10.408-8.66 25.2676M1509.56 17.5865s-14.34-4.6986-16.9-19.68171" stroke="#50716D"
      stroke-width="3.85765" stroke-miterlimit="10" />
    <path
      d="M1497.28 53.7632c4.9 0 8.87-3.9724 8.87-8.8726 0-4.9001-3.97-8.8725-8.87-8.8725-4.9 0-8.87 3.9724-8.87 8.8725 0 4.9002 3.97 8.8726 8.87 8.8726ZM1484.54 32.4307c4.9 0 8.87-3.9724 8.87-8.8726s-3.97-8.8726-8.87-8.8726c-4.9 0-8.88 3.9724-8.88 8.8726s3.98 8.8726 8.88 8.8726ZM1489.92 7.89556c4.9 0 8.88-3.97239 8.88-8.872586 0-4.900194-3.98-8.872584-8.88-8.872584s-8.87 3.97239-8.87 8.872584c0 4.900196 3.97 8.872586 8.87 8.872586Z"
      fill="#BB2E26" />
    <path d="M1504.62 69.8031s-18.72 6.0797-32.01-1.2885" stroke="#50716D" stroke-width="3.85765"
      stroke-miterlimit="10" />
    <path
      d="M1472.35 77.1944c4.9 0 8.88-3.9724 8.88-8.8726s-3.98-8.8726-8.88-8.8726-8.87 3.9724-8.87 8.8726 3.97 8.8726 8.87 8.8726Z"
      fill="#BB2E26" />
    <path d="M1504.57 68.8467s-3.67 19.3422 5.32 31.5943" stroke="#50716D" stroke-width="3.85765"
      stroke-miterlimit="10" />
    <path d="M1475.99 94.8781s68.36-47.0633 65.28-105.6686" stroke="#50716D" stroke-width="4.62917"
      stroke-miterlimit="10" />
    <path
      d="M1470.87 108.087c4.9 0 8.88-3.972 8.88-8.8726 0-4.9002-3.98-8.8726-8.88-8.8726s-8.87 3.9724-8.87 8.8726c0 4.9006 3.97 8.8726 8.87 8.8726Z"
      fill="#BB2E26" />
    <path d="M1486.64 86.5918v32.4662" stroke="#50716D" stroke-width="3.85765" stroke-miterlimit="10" />
    <path
      d="M1486.3 134.318c4.9 0 8.87-3.972 8.87-8.872s-3.97-8.873-8.87-8.873c-4.9 0-8.88 3.973-8.88 8.873 0 4.9 3.98 8.872 8.88 8.872ZM1508.67 109.637c4.9 0 8.87-3.972 8.87-8.872 0-4.9005-3.97-8.8729-8.87-8.8729-4.9 0-8.87 3.9724-8.87 8.8729 0 4.9 3.97 8.872 8.87 8.872Z"
      fill="#BB2E26" />
    <path d="M1540.84 3.25928s-3.67 19.34222 5.32 31.59412" stroke="#50716D" stroke-width="3.85765"
      stroke-miterlimit="10" />
    <path
      d="M1544.94 44.0499c4.9 0 8.87-3.9724 8.87-8.8726s-3.97-8.8726-8.87-8.8726c-4.9 0-8.87 3.9724-8.87 8.8726s3.97 8.8726 8.87 8.8726Z"
      fill="#BB2E26" />
    <path d="M698.591-10.4517s7.901 36.069-2.438 47.2099" stroke="#50716D" stroke-width="3.85765"
      stroke-miterlimit="10" />
    <path d="M701.33 13.5195s-10.362 11.8893-25.229 8.7492M701.122 12.5244s4.753 14.3119 19.744 16.8271"
      stroke="#50716D" stroke-width="3.85765" stroke-miterlimit="10" />
    <path
      d="M673.873 33.7803c4.9 0 8.872-3.9724 8.872-8.8726s-3.972-8.8725-8.872-8.8725c-4.901 0-8.873 3.9723-8.873 8.8725s3.972 8.8726 8.873 8.8726ZM695.245 46.4405c4.901 0 8.873-3.9724 8.873-8.8726s-3.972-8.8726-8.873-8.8726c-4.9 0-8.872 3.9724-8.872 8.8726s3.972 8.8726 8.872 8.8726ZM719.763 40.9781c4.9 0 8.872-3.9724 8.872-8.8726s-3.972-8.8726-8.872-8.8726c-4.901 0-8.873 3.9724-8.873 8.8726s3.972 8.8726 8.873 8.8726Z"
      fill="#BB2E26" />
    <path d="M732.533 9.00646s19.604-1.78223 28.916-13.78722" stroke="#50716D" stroke-width="3.85765"
      stroke-miterlimit="10" />
    <path
      d="M761.602 3.8062c4.9 0 8.873-3.972388 8.873-8.87258 0-4.90019-3.973-8.87262-8.873-8.87262-4.9 0-8.872 3.97243-8.872 8.87262 0 4.900192 3.972 8.87258 8.872 8.87258Z"
      fill="#BB2E26" />
    <path d="M732.208 8.10352s10.987 16.33328 7.546 31.13888" stroke="#50716D" stroke-width="3.85765"
      stroke-miterlimit="10" />
    <path d="M768.725 20.7798S687.344 4.43883 667.107-50.6406" stroke="#50716D" stroke-width="4.62917"
      stroke-miterlimit="10" />
    <path
      d="M775.134 31.6197c4.901 0 8.873-3.9724 8.873-8.8726s-3.972-8.8726-8.873-8.8726c-4.9 0-8.872 3.9724-8.872 8.8726s3.972 8.8726 8.872 8.8726Z"
      fill="#BB2E26" />
    <path d="m755.669 17.3618 12.784 29.835" stroke="#50716D" stroke-width="3.85765" stroke-miterlimit="10" />
    <path
      d="M771.286 61.8096c4.901 0 8.873-3.9724 8.873-8.8726s-3.972-8.8725-8.873-8.8725c-4.9 0-8.872 3.9723-8.872 8.8725s3.972 8.8726 8.872 8.8726ZM740.997 47.9297c4.9 0 8.873-3.9724 8.873-8.8725 0-4.9002-3.973-8.8726-8.873-8.8726-4.9 0-8.872 3.9724-8.872 8.8726 0 4.9001 3.972 8.8725 8.872 8.8725ZM681.835 1.93169c4.9 0 8.873-3.97239 8.873-8.87258 0-4.90021-3.973-8.87261-8.873-8.87261-4.9 0-8.872 3.9724-8.872 8.87261 0 4.90019 3.972 8.87258 8.872 8.87258Z"
      fill="#BB2E26" />
    <path
      d="M1306.67 39.5591s-39.8 4.9069-35.04 53.7755c47.46-10.4927 35.04-53.7755 35.04-53.7755ZM1384.75 2.81104s-41.05 26.08536-11.09 78.24846c46.6-36.2927 11.09-78.24846 11.09-78.24846ZM1288.52-34.0063s-18.34 45.0495 36.3 70.2014c16.95-56.584-36.3-70.2014-36.3-70.2014ZM1331.42-28.2198s22.84 42.9433 77.16 17.1048c-32.58-49.2621-77.16-17.1048-77.16-17.1048ZM1243.85-12.5269s-13.86 31.9182 24.81 50.8129c13.06-40.1889-24.81-50.8129-24.81-50.8129Z"
      fill="#50716D" />
    <path d="M1214 48.4008s28.24 20.3375 54.93-13.4323c-36.5-21.3096-54.93 13.4323-54.93 13.4323Z" fill="#50716D" />
    <path d="M1413.18-14.3013s-79.93 53.9376-109.38 53.9376c-29.46 0-36.71-3.7496-36.71-3.7496" stroke="#50716D"
      stroke-width="3.08612" stroke-miterlimit="10" />
    <path
      d="M1342.44 46.2943c.92-2.3069-1.61-4.4672-3.71-3.1401-6.48 4.1045-12.98 11.0637-12.76 17.4828.37 10.4928 5.94 15.8781 11.22 12.6145 5.29-3.2713 6.23-10.4002 3.91-16.6187-1.07-2.8701-.06-6.8666 1.34-10.3385ZM1292.14 22.9944c1.24 1.8362-.18 4.0659-2.07 3.2481-5.87-2.546-12.42-7.5224-13.74-13.0543-2.17-9.04229.8-14.49701 5.56-12.491031 4.76 2.005971 7.14 7.969891 6.83 13.648331-.14 2.6232 1.55 5.8945 3.42 8.6566v-.0077ZM1353.51 14.7774c2.03 0 3.68-1.6477 3.68-3.6802 0-2.03253-1.65-3.68021-3.68-3.68021-2.04 0-3.68 1.64768-3.68 3.68021 0 2.0325 1.64 3.6802 3.68 3.6802ZM1341.54 15.7033c1.53 0 2.76-1.2366 2.76-2.762 0-1.5255-1.23-2.7621-2.76-2.7621-1.52 0-2.76 1.2366-2.76 2.7621 0 1.5254 1.24 2.762 2.76 2.762ZM1266.97 58.0529c2.55 0 4.61-2.0622 4.61-4.6061 0-2.5438-2.06-4.606-4.61-4.606-2.54 0-4.6 2.0622-4.6 4.606 0 2.5439 2.06 4.6061 4.6 4.6061ZM1261.21 57.3042s-18.66 19.3499-21.38 9.8138c-2.72-9.536 21.38-9.8138 21.38-9.8138ZM1264.07 61.4629s2.7 23.0919-4.93 18.5398c-7.63-4.552 4.93-18.5398 4.93-18.5398ZM1349.23 3.79085s-28.54-11.29518-18.47-17.32855c10.06-6.0333 18.47 17.32855 18.47 17.32855Z"
      fill="#7CAAA3" />
    <path
      d="M1822.53 67.6891s-27.89 18.7404-51.7-14.8211c35.81-19.4117 51.7 14.8211 51.7 14.8211ZM1892.16 48.0926s-40.32 6.0179-49.98-43.46799c49.43-2.60005 49.98 43.46799 49.98 43.46799ZM1851.42 124.243s-36.35-18.463-15.54-64.3846c41.8 26.5329 15.54 64.3846 15.54 64.3846ZM1875.42 97.0154s-9.12-39.7338 39.48-53.1892c6.41 49.0846-39.48 53.1892-39.48 53.1892ZM1811.35 135.152s-26.3-12.599-12.18-45.798c30.32 18.285 12.18 45.798 12.18 45.798Z"
      fill="#50716D" />
    <path d="M1759 112.955s6.72-28.3767 42.16-21.6413C1789.74 124.837 1759 112.955 1759 112.955Z" fill="#50716D" />
    <path d="M1919.55 43.3247s-80.22 9.7135-98.88 25.8848c-18.65 16.1712-21.19 22.5287-21.19 22.5287" stroke="#50716D"
      stroke-width="3.08612" stroke-miterlimit="10" />
    <path
      d="M1841.49 43.7798c1.85.949 1.44 3.711-.62 4.0196-6.36.9567-14.3.1158-17.68-4.0736-5.52-6.8435-4.96-13.3166.19-14.1422 5.14-.8255 9.65 3.1633 11.59 8.3788.9 2.4072 3.73 4.3823 6.52 5.8174ZM1822.43 86.1524c-.23-1.844-2.35-2.4766-3.1-.9181-2.31 4.8297-3.72 11.5806-1.53 15.8087 3.59 6.913 8.46 8.741 10.38 4.861 1.92-3.881.14-8.9656-3.17-12.3912-1.52-1.5817-2.25-4.5829-2.58-7.3604ZM1867.83 63.0834c1.7 0 3.08-1.3817 3.08-3.0862 0-1.7044-1.38-3.0861-3.08-3.0861-1.71 0-3.09 1.3817-3.09 3.0861 0 1.7045 1.38 3.0862 3.09 3.0862ZM1859.24 67.7127c1.27 0 2.31-1.0363 2.31-2.3146s-1.04-2.3146-2.31-2.3146c-1.28 0-2.32 1.0363-2.32 2.3146s1.04 2.3146 2.32 2.3146ZM1789.78 84.5317c2.13 0 3.86-1.7271 3.86-3.8576 0-2.1306-1.73-3.8577-3.86-3.8577s-3.86 1.7271-3.86 3.8577c0 2.1305 1.73 3.8576 3.86 3.8576ZM1784 81.3915s-22.44-2.0137-18.92 5.5164c3.52 7.5301 18.92-5.5164 18.92-5.5164ZM1783.53 77.1945s-10.96-16.1096-13.3-9.0346c-2.33 7.0672 13.3 9.0346 13.3 9.0346ZM1869.13 66.9717s-11.88 22.8218-2.19 21.1167c9.68-1.7051 2.19-21.1167 2.19-21.1167Z"
      fill="#7CAAA3" />
    <path
      d="M92.3464 105.807s33.5846 1.281 36.1996-39.788c-40.6745 2.3146-36.1996 39.788-36.1996 39.788ZM22.8148 125.743s37.4577-16.079 19.6663-63.2498C-.940563 86.2717 22.8148 125.743 22.8148 125.743ZM97.5007 169.103s21.2093-34.811-20.6229-62.941c-21.6028 44.54 20.6229 62.941 20.6229 62.941ZM62.7738 158.564s-13.1314-38.592-61.53711-24.496c20.35291 45.126 61.53711 24.496 61.53711 24.496ZM137.324 157.321s15.747-24.542-13.71-45.365c-16.194 31.493 13.71 45.365 13.71 45.365Z"
      fill="#50716D" />
    <path d="M170.184 110.922s-20.639-20.6074-47.241 3.75c27.335 22.521 47.241-3.75 47.241-3.75Z" fill="#50716D" />
    <path d="M-3 136.082s73.357-33.909 97.7296-29.959c24.3724 3.951 29.8654 8.024 29.8654 8.024" stroke="#50716D"
      stroke-width="3.08612" stroke-miterlimit="10" />
    <path
      d="M63.6519 95.4376c-1.0724 1.7822.733 3.9116 2.6464 3.0938 5.9099-2.5306 12.221-7.4144 12.8922-12.7534 1.1033-8.726-2.7852-13.9338-7.5918-11.9355-4.8067 1.9982-6.5503 7.7693-5.4625 13.224.5015 2.5229-.8718 5.6862-2.492 8.3711h.0077ZM102.136 121.461c-.779-1.681.695-3.34 2.153-2.407 4.505 2.894 9.258 7.893 9.613 12.646.579 7.769-2.6 11.889-6.273 9.59-3.672-2.299-4.837-7.554-3.826-12.206.47-2.152-.494-5.084-1.667-7.615v-.008ZM49.7728 126.16c1.7044 0 3.0861-1.382 3.0861-3.087 0-1.704-1.3817-3.086-3.0861-3.086-1.7045 0-3.0862 1.382-3.0862 3.086 0 1.705 1.3817 3.087 3.0862 3.087ZM59.9188 125.473c1.2783 0 2.3146-1.036 2.3146-2.315 0-1.278-1.0363-2.314-2.3146-2.314s-2.3146 1.036-2.3146 2.314c0 1.279 1.0363 2.315 2.3146 2.315ZM127.041 103.5c2.131 0 3.858-1.727 3.858-3.8577 0-2.1305-1.727-3.8576-3.858-3.8576-2.13 0-3.857 1.7271-3.857 3.8576 0 2.1307 1.727 3.8577 3.857 3.8577ZM132.325 97.22s18.039-13.5095 19.003-5.2541c.964 8.2551-19.003 5.2541-19.003 5.2541ZM130.514 93.4006s.856-19.4657 6.565-14.6822c5.702 4.7835-6.565 14.6822-6.565 14.6822ZM52.3269 129.693s22.0966 13.178 12.9617 16.812c-9.1349 3.642-12.9617-16.812-12.9617-16.812Z"
      fill="#7CAAA3" />
    <path d="m1658.13 56.591 13.19-28.4694" stroke="#DCCDAA" stroke-width=".879543" stroke-miterlimit="10" />
    <path
      d="M1657.74 58.5971c.73 0 1.32-.5907 1.32-1.3193 0-.7286-.59-1.3193-1.32-1.3193-.73 0-1.32.5907-1.32 1.3193 0 .7286.59 1.3193 1.32 1.3193ZM1671.26 29.3945c.73 0 1.32-.5907 1.32-1.3193 0-.7287-.59-1.3193-1.32-1.3193-.72 0-1.31.5906-1.31 1.3193 0 .7286.59 1.3193 1.31 1.3193Z"
      fill="#DCCDAA" />
    <path d="m1650.09 47.9346 29.45-10.8091" stroke="#DCCDAA" stroke-width=".879543" stroke-miterlimit="10" />
    <path
      d="M1649.32 49.4623c.73 0 1.32-.5906 1.32-1.3193 0-.7286-.59-1.3193-1.32-1.3193-.73 0-1.32.5907-1.32 1.3193 0 .7287.59 1.3193 1.32 1.3193ZM1679.53 38.3755c.73 0 1.32-.5907 1.32-1.3194 0-.7286-.59-1.3193-1.32-1.3193-.73 0-1.32.5907-1.32 1.3193 0 .7287.59 1.3194 1.32 1.3194Z"
      fill="#DCCDAA" />
    <path d="M1650.53 36.1299 1679 49.3153" stroke="#DCCDAA" stroke-width=".879543" stroke-miterlimit="10" />
    <path
      d="M1649.83 37.0483c.73 0 1.32-.5907 1.32-1.3193 0-.7286-.59-1.3193-1.32-1.3193-.73 0-1.32.5907-1.32 1.3193 0 .7286.59 1.3193 1.32 1.3193ZM1679.03 50.581c.73 0 1.32-.5907 1.32-1.3193 0-.7286-.59-1.3193-1.32-1.3193-.72 0-1.31.5907-1.31 1.3193 0 .7286.59 1.3193 1.31 1.3193Z"
      fill="#DCCDAA" />
    <path d="m1659.18 28.0908 10.8 29.4493" stroke="#DCCDAA" stroke-width=".879543" stroke-miterlimit="10" />
    <path
      d="M1658.97 28.6386c.72 0 1.32-.5906 1.32-1.3193 0-.7286-.6-1.3193-1.32-1.3193-.73 0-1.32.5907-1.32 1.3193 0 .7287.59 1.3193 1.32 1.3193ZM1670.05 58.8515c.73 0 1.32-.5907 1.32-1.3193 0-.7286-.59-1.3193-1.32-1.3193-.72 0-1.32.5907-1.32 1.3193 0 .7286.6 1.3193 1.32 1.3193Z"
      fill="#DCCDAA" />
    <path d="m256.13 70.591 13.185-28.4694" stroke="#DCCDAA" stroke-width=".879543" stroke-miterlimit="10" />
    <path
      d="M255.737 72.5971c.728 0 1.319-.5907 1.319-1.3193 0-.7286-.591-1.3193-1.319-1.3193-.729 0-1.32.5907-1.32 1.3193 0 .7286.591 1.3193 1.32 1.3193ZM269.263 43.3945c.728 0 1.319-.5907 1.319-1.3193 0-.7287-.591-1.3193-1.319-1.3193-.729 0-1.32.5906-1.32 1.3193 0 .7286.591 1.3193 1.32 1.3193Z"
      fill="#DCCDAA" />
    <path d="m248.091 61.9346 29.449-10.8091" stroke="#DCCDAA" stroke-width=".879543" stroke-miterlimit="10" />
    <path
      d="M247.319 63.4623c.729 0 1.32-.5906 1.32-1.3193 0-.7286-.591-1.3193-1.32-1.3193-.728 0-1.319.5907-1.319 1.3193 0 .7287.591 1.3193 1.319 1.3193ZM277.531 52.3755c.729 0 1.32-.5907 1.32-1.3194 0-.7286-.591-1.3193-1.32-1.3193-.728 0-1.319.5907-1.319 1.3193 0 .7287.591 1.3194 1.319 1.3194Z"
      fill="#DCCDAA" />
    <path d="m248.524 50.1299 28.469 13.1854" stroke="#DCCDAA" stroke-width=".879543" stroke-miterlimit="10" />
    <path
      d="M247.829 51.0483c.729 0 1.319-.5907 1.319-1.3193 0-.7286-.59-1.3193-1.319-1.3193s-1.319.5907-1.319 1.3193c0 .7286.59 1.3193 1.319 1.3193ZM277.033 64.581c.728 0 1.319-.5907 1.319-1.3193 0-.7286-.591-1.3193-1.319-1.3193-.729 0-1.32.5907-1.32 1.3193 0 .7286.591 1.3193 1.32 1.3193Z"
      fill="#DCCDAA" />
    <path d="m257.18 42.0908 10.802 29.4493" stroke="#DCCDAA" stroke-width=".879543" stroke-miterlimit="10" />
    <path
      d="M256.964 42.6386c.729 0 1.32-.5906 1.32-1.3193 0-.7286-.591-1.3193-1.32-1.3193-.728 0-1.319.5907-1.319 1.3193 0 .7287.591 1.3193 1.319 1.3193ZM268.052 72.8515c.729 0 1.319-.5907 1.319-1.3193 0-.7286-.59-1.3193-1.319-1.3193s-1.319.5907-1.319 1.3193c0 .7286.59 1.3193 1.319 1.3193Z"
      fill="#DCCDAA" />
    <path d="m662.58 191.162-9.659-29.85" stroke="#DCCDAA" stroke-width=".879543" stroke-miterlimit="10" />
    <path
      d="M662.768 193.261c.729 0 1.319-.591 1.319-1.32 0-.728-.59-1.319-1.319-1.319s-1.319.591-1.319 1.319c0 .729.59 1.32 1.319 1.32ZM652.852 162.639c.729 0 1.32-.591 1.32-1.32 0-.728-.591-1.319-1.32-1.319-.728 0-1.319.591-1.319 1.319 0 .729.591 1.32 1.319 1.32Z"
      fill="#DCCDAA" />
    <path d="m650.796 190.274 14.274-27.937" stroke="#DCCDAA" stroke-width=".879543" stroke-miterlimit="10" />
    <path
      d="M650.381 192.273c.729 0 1.319-.591 1.319-1.319 0-.729-.59-1.32-1.319-1.32s-1.319.591-1.319 1.32c0 .728.59 1.319 1.319 1.319ZM665.025 163.61c.728 0 1.319-.59 1.319-1.319s-.591-1.319-1.319-1.319c-.729 0-1.32.59-1.32 1.319s.591 1.319 1.32 1.319Z"
      fill="#DCCDAA" />
    <path d="m643.097 181.317 29.851-9.659" stroke="#DCCDAA" stroke-width=".879543" stroke-miterlimit="10" />
    <path
      d="M642.319 182.822c.729 0 1.32-.591 1.32-1.32 0-.728-.591-1.319-1.32-1.319-.728 0-1.319.591-1.319 1.319 0 .729.591 1.32 1.319 1.32ZM672.943 172.908c.728 0 1.319-.591 1.319-1.32 0-.728-.591-1.319-1.319-1.319-.729 0-1.32.591-1.32 1.319 0 .729.591 1.32 1.32 1.32Z"
      fill="#DCCDAA" />
    <path d="m643.987 169.536 27.945 14.273" stroke="#DCCDAA" stroke-width=".879543" stroke-miterlimit="10" />
    <path
      d="M643.315 170.438c.728 0 1.319-.59 1.319-1.319s-.591-1.319-1.319-1.319c-.729 0-1.32.59-1.32 1.319s.591 1.319 1.32 1.319ZM671.969 185.082c.729 0 1.319-.591 1.319-1.319 0-.729-.59-1.32-1.319-1.32s-1.319.591-1.319 1.32c0 .728.59 1.319 1.319 1.319Z"
      fill="#DCCDAA" />
    <path d="m98.5772 42.162-9.6595-29.8505" stroke="#DCCDAA" stroke-width=".879543" stroke-miterlimit="10" />
    <path
      d="M98.765 44.2607c.7286 0 1.319-.5907 1.319-1.3193 0-.7287-.5904-1.3193-1.319-1.3193-.7286 0-1.3193.5906-1.3193 1.3193 0 .7286.5907 1.3193 1.3193 1.3193ZM88.8495 13.6386c.7286 0 1.3193-.5906 1.3193-1.3193 0-.7286-.5907-1.3193-1.3193-1.3193-.7287 0-1.3193.5907-1.3193 1.3193 0 .7287.5906 1.3193 1.3193 1.3193Z"
      fill="#DCCDAA" />
    <path d="m86.796 41.275 14.273-27.9371" stroke="#DCCDAA" stroke-width=".879543" stroke-miterlimit="10" />
    <path
      d="M86.3808 43.2734c.7286 0 1.3193-.5907 1.3193-1.3193 0-.7287-.5907-1.3193-1.3193-1.3193-.7286 0-1.3193.5906-1.3193 1.3193 0 .7286.5907 1.3193 1.3193 1.3193ZM101.024 14.6108c.729 0 1.32-.5907 1.32-1.3193 0-.7286-.591-1.3193-1.32-1.3193-.728 0-1.3189.5907-1.3189 1.3193 0 .7286.5909 1.3193 1.3189 1.3193Z"
      fill="#DCCDAA" />
    <path d="m79.0974 32.3177 29.8506-9.6595" stroke="#DCCDAA" stroke-width=".879543" stroke-miterlimit="10" />
    <path
      d="M78.3193 33.8144c.7287 0 1.3193-.5907 1.3193-1.3193 0-.7286-.5906-1.3193-1.3193-1.3193-.7286 0-1.3193.5907-1.3193 1.3193 0 .7286.5907 1.3193 1.3193 1.3193ZM108.943 23.9082c.728 0 1.319-.5907 1.319-1.3193 0-.7287-.591-1.3194-1.319-1.3194-.729 0-1.32.5907-1.32 1.3194 0 .7286.591 1.3193 1.32 1.3193Z"
      fill="#DCCDAA" />
    <path d="m79.9863 20.5366 27.9447 14.2733" stroke="#DCCDAA" stroke-width=".879543" stroke-miterlimit="10" />
    <path
      d="M79.3142 21.4389c.7286 0 1.3193-.5907 1.3193-1.3193 0-.7286-.5907-1.3193-1.3193-1.3193-.7286 0-1.3193.5907-1.3193 1.3193 0 .7286.5907 1.3193 1.3193 1.3193ZM107.969 36.0825c.728 0 1.319-.5907 1.319-1.3193 0-.7287-.591-1.3194-1.319-1.3194-.729 0-1.32.5907-1.32 1.3194 0 .7286.591 1.3193 1.32 1.3193Z"
      fill="#DCCDAA" />
    <path d="m1094.32 46.2599-13.51-28.3151" stroke="#BB2E26" stroke-width=".879543" stroke-miterlimit="10" />
    <path
      d="M1094.61 48.3276c.73 0 1.32-.5907 1.32-1.3193 0-.7287-.59-1.3193-1.32-1.3193-.73 0-1.32.5906-1.32 1.3193 0 .7286.59 1.3193 1.32 1.3193ZM1080.75 19.2793c.73 0 1.32-.5907 1.32-1.3194 0-.7286-.59-1.3193-1.32-1.3193-.73 0-1.32.5907-1.32 1.3193 0 .7287.59 1.3194 1.32 1.3194Z"
      fill="#BB2E26" />
    <path d="M1082.53 46.9306 1093 17.3579" stroke="#BB2E26" stroke-width=".879543" stroke-miterlimit="10" />
    <path
      d="M1082.2 48.9829c.73 0 1.32-.5907 1.32-1.3193 0-.7287-.59-1.3194-1.32-1.3194-.73 0-1.32.5907-1.32 1.3194 0 .7286.59 1.3193 1.32 1.3193ZM1092.94 18.6386c.73 0 1.32-.5906 1.32-1.3193 0-.7286-.59-1.3193-1.32-1.3193-.73 0-1.32.5907-1.32 1.3193 0 .7287.59 1.3193 1.32 1.3193Z"
      fill="#BB2E26" />
    <path d="m1073.71 39.0686 28.32-13.5095" stroke="#BB2E26" stroke-width=".879543" stroke-miterlimit="10" />
    <path
      d="M1072.97 40.6655c.73 0 1.32-.5907 1.32-1.3193 0-.7287-.59-1.3193-1.32-1.3193-.73 0-1.32.5906-1.32 1.3193 0 .7286.59 1.3193 1.32 1.3193ZM1102.02 26.809c.73 0 1.32-.5906 1.32-1.3193 0-.7286-.59-1.3193-1.32-1.3193-.73 0-1.32.5907-1.32 1.3193 0 .7287.59 1.3193 1.32 1.3193Z"
      fill="#BB2E26" />
    <path d="m1073.05 27.272 29.58 10.4696" stroke="#BB2E26" stroke-width=".879543" stroke-miterlimit="10" />
    <path
      d="M1072.32 28.267c.73 0 1.32-.5906 1.32-1.3193 0-.7286-.59-1.3193-1.32-1.3193-.73 0-1.32.5907-1.32 1.3193 0 .7287.59 1.3193 1.32 1.3193ZM1102.66 39.0068c.73 0 1.32-.5907 1.32-1.3193 0-.7287-.59-1.3193-1.32-1.3193-.73 0-1.32.5906-1.32 1.3193 0 .7286.59 1.3193 1.32 1.3193Z"
      fill="#BB2E26" />
    <path d="m1341.33 176.26-13.51-28.315" stroke="#BB2E26" stroke-width=".879543" stroke-miterlimit="10" />
    <path
      d="M1341.61 178.328c.73 0 1.32-.591 1.32-1.32 0-.728-.59-1.319-1.32-1.319-.73 0-1.32.591-1.32 1.319 0 .729.59 1.32 1.32 1.32ZM1327.75 149.279c.73 0 1.32-.59 1.32-1.319s-.59-1.319-1.32-1.319c-.72 0-1.31.59-1.31 1.319s.59 1.319 1.31 1.319Z"
      fill="#BB2E26" />
    <path d="m1329.54 176.931 10.47-29.573" stroke="#BB2E26" stroke-width=".879543" stroke-miterlimit="10" />
    <path
      d="M1329.2 178.983c.73 0 1.32-.591 1.32-1.319 0-.729-.59-1.32-1.32-1.32-.72 0-1.32.591-1.32 1.32 0 .728.6 1.319 1.32 1.319ZM1339.94 148.639c.73 0 1.32-.591 1.32-1.32 0-.728-.59-1.319-1.32-1.319-.72 0-1.31.591-1.31 1.319 0 .729.59 1.32 1.31 1.32Z"
      fill="#BB2E26" />
    <path d="m1320.72 169.069 28.31-13.51" stroke="#BB2E26" stroke-width=".879543" stroke-miterlimit="10" />
    <path
      d="M1319.98 170.665c.73 0 1.32-.59 1.32-1.319 0-.728-.59-1.319-1.32-1.319-.73 0-1.32.591-1.32 1.319 0 .729.59 1.319 1.32 1.319ZM1349.03 156.809c.72 0 1.32-.591 1.32-1.319 0-.729-.6-1.32-1.32-1.32-.73 0-1.32.591-1.32 1.32 0 .728.59 1.319 1.32 1.319Z"
      fill="#BB2E26" />
    <path d="m1320.05 157.272 29.58 10.47" stroke="#BB2E26" stroke-width=".879543" stroke-miterlimit="10" />
    <path
      d="M1319.32 158.267c.73 0 1.32-.591 1.32-1.319 0-.729-.59-1.32-1.32-1.32-.73 0-1.32.591-1.32 1.32 0 .728.59 1.319 1.32 1.319ZM1349.66 169.007c.73 0 1.32-.591 1.32-1.32 0-.728-.59-1.319-1.32-1.319-.73 0-1.32.591-1.32 1.319 0 .729.59 1.32 1.32 1.32Z"
      fill="#BB2E26" />
    <path d="m1603.98 200.686-25.7-17.985" stroke="#BB2E26" stroke-width=".879543" stroke-miterlimit="10" />
    <path
      d="M1604.6 202.514c.73 0 1.32-.591 1.32-1.319 0-.729-.59-1.32-1.32-1.32-.73 0-1.32.591-1.32 1.32 0 .728.59 1.319 1.32 1.319ZM1578.23 184.067c.73 0 1.32-.591 1.32-1.319 0-.729-.59-1.32-1.32-1.32-.73 0-1.32.591-1.32 1.32 0 .728.59 1.319 1.32 1.319Z"
      fill="#BB2E26" />
    <path d="m1594.05 207.081-5.46-30.892" stroke="#BB2E26" stroke-width=".879543" stroke-miterlimit="10" />
    <path
      d="M1594.12 209.195c.73 0 1.32-.59 1.32-1.319s-.59-1.319-1.32-1.319c-.73 0-1.32.59-1.32 1.319s.59 1.319 1.32 1.319ZM1588.52 177.501c.73 0 1.32-.591 1.32-1.319 0-.729-.59-1.32-1.32-1.32-.73 0-1.32.591-1.32 1.32 0 .728.59 1.319 1.32 1.319Z"
      fill="#BB2E26" />
    <path d="m1582.51 204.581 17.99-25.707" stroke="#BB2E26" stroke-width=".879543" stroke-miterlimit="10" />
    <path
      d="M1582 206.511c.72 0 1.31-.591 1.31-1.32 0-.728-.59-1.319-1.31-1.319-.73 0-1.32.591-1.32 1.319 0 .729.59 1.32 1.32 1.32ZM1600.45 180.14c.73 0 1.32-.591 1.32-1.32 0-.728-.59-1.319-1.32-1.319-.73 0-1.32.591-1.32 1.319 0 .729.59 1.32 1.32 1.32Z"
      fill="#BB2E26" />
    <path d="m1576.11 194.644 30.9-5.455" stroke="#BB2E26" stroke-width=".879543" stroke-miterlimit="10" />
    <path
      d="M1575.32 196.041c.73 0 1.32-.591 1.32-1.319 0-.729-.59-1.32-1.32-1.32-.73 0-1.32.591-1.32 1.32 0 .728.59 1.319 1.32 1.319ZM1607.01 190.439c.72 0 1.32-.59 1.32-1.319s-.6-1.319-1.32-1.319c-.73 0-1.32.59-1.32 1.319s.59 1.319 1.32 1.319Z"
      fill="#BB2E26" />
    <path d="m342.066 209.005-16.14-26.903" stroke="#BB2E26" stroke-width=".879543" stroke-miterlimit="10" />
    <path
      d="M342.422 211.034c.728 0 1.319-.591 1.319-1.32 0-.728-.591-1.319-1.319-1.319-.729 0-1.32.591-1.32 1.319 0 .729.591 1.32 1.32 1.32ZM325.857 183.436c.729 0 1.32-.591 1.32-1.319 0-.729-.591-1.32-1.32-1.32-.728 0-1.319.591-1.319 1.32 0 .728.591 1.319 1.319 1.319Z"
      fill="#BB2E26" />
    <path d="M330.385 210.787 338 180.35" stroke="#BB2E26" stroke-width=".879543" stroke-miterlimit="10" />
    <path
      d="M330.13 212.862c.729 0 1.319-.59 1.319-1.319s-.59-1.319-1.319-1.319-1.319.59-1.319 1.319.59 1.319 1.319 1.319ZM337.938 181.639c.729 0 1.32-.591 1.32-1.32 0-.728-.591-1.319-1.32-1.319-.728 0-1.319.591-1.319 1.319 0 .729.591 1.32 1.319 1.32Z"
      fill="#BB2E26" />
    <path d="m320.863 203.797 26.904-16.14" stroke="#BB2E26" stroke-width=".879543" stroke-miterlimit="10" />
    <path
      d="M320.146 205.471c.729 0 1.32-.591 1.32-1.319 0-.729-.591-1.319-1.32-1.319-.728 0-1.319.59-1.319 1.319 0 .728.591 1.319 1.319 1.319ZM347.744 188.914c.729 0 1.319-.591 1.319-1.319 0-.729-.59-1.32-1.319-1.32s-1.319.591-1.319 1.32c0 .728.59 1.319 1.319 1.319Z"
      fill="#BB2E26" />
    <path d="m319.075 192.124 30.437 7.607" stroke="#BB2E26" stroke-width=".879543" stroke-miterlimit="10" />
    <path
      d="M318.319 193.181c.729 0 1.32-.591 1.32-1.32 0-.728-.591-1.319-1.32-1.319-.728 0-1.319.591-1.319 1.319 0 .729.591 1.32 1.319 1.32ZM349.543 200.989c.729 0 1.32-.591 1.32-1.32 0-.728-.591-1.319-1.32-1.319-.728 0-1.319.591-1.319 1.319 0 .729.591 1.32 1.319 1.32Z"
      fill="#BB2E26" />
    <path d="M1796.84 43.399 1766.35 36" stroke="#7CAAA3" stroke-width=".879543" stroke-miterlimit="10" />
    <path
      d="M1797.6 44.9731c.73 0 1.32-.5907 1.32-1.3193 0-.7286-.59-1.3193-1.32-1.3193-.73 0-1.32.5907-1.32 1.3193 0 .7286.59 1.3193 1.32 1.3193ZM1766.32 37.3813c.73 0 1.32-.5907 1.32-1.3193 0-.7287-.59-1.3193-1.32-1.3193-.73 0-1.32.5906-1.32 1.3193 0 .7286.59 1.3193 1.32 1.3193Z"
      fill="#7CAAA3" />
    <path d="m1789.92 52.9662-16.33-26.7875" stroke="#7CAAA3" stroke-width=".879543" stroke-miterlimit="10" />
    <path
      d="M1790.28 55.0034c.73 0 1.32-.5907 1.32-1.3193 0-.7287-.59-1.3194-1.32-1.3194-.73 0-1.32.5907-1.32 1.3194 0 .7286.59 1.3193 1.32 1.3193ZM1773.53 27.5214c.73 0 1.32-.5906 1.32-1.3193 0-.7286-.59-1.3193-1.32-1.3193-.73 0-1.32.5907-1.32 1.3193 0 .7287.59 1.3193 1.32 1.3193Z"
      fill="#7CAAA3" />
    <path d="m1778.26 54.8409 7.4-30.4908" stroke="#7CAAA3" stroke-width=".879543" stroke-miterlimit="10" />
    <path
      d="M1778 56.9165c.73 0 1.32-.5907 1.32-1.3193 0-.7287-.59-1.3194-1.32-1.3194-.73 0-1.32.5907-1.32 1.3194 0 .7286.59 1.3193 1.32 1.3193ZM1785.6 25.6386c.72 0 1.31-.5906 1.31-1.3193 0-.7286-.59-1.3193-1.31-1.3193-.73 0-1.32.5907-1.32 1.3193 0 .7287.59 1.3193 1.32 1.3193Z"
      fill="#7CAAA3" />
    <path d="m1768.68 47.913 26.8-16.3256" stroke="#7CAAA3" stroke-width=".879543" stroke-miterlimit="10" />
    <path
      d="M1767.97 49.5874c.73 0 1.32-.5907 1.32-1.3193 0-.7287-.59-1.3194-1.32-1.3194-.73 0-1.32.5907-1.32 1.3194 0 .7286.59 1.3193 1.32 1.3193ZM1795.45 32.8374c.73 0 1.32-.5907 1.32-1.3194 0-.7286-.59-1.3193-1.32-1.3193-.72 0-1.32.5907-1.32 1.3193 0 .7287.6 1.3194 1.32 1.3194Z"
      fill="#7CAAA3" />
    <path d="m588.636 30.6855-29.325 11.1409" stroke="#7CAAA3" stroke-width=".879543" stroke-miterlimit="10" />
    <path
      d="M589.4 31.7812c.728 0 1.319-.5907 1.319-1.3193 0-.7286-.591-1.3193-1.319-1.3193-.729 0-1.32.5907-1.32 1.3193 0 .7286.591 1.3193 1.32 1.3193ZM559.319 43.2153c.729 0 1.32-.5907 1.32-1.3193 0-.7287-.591-1.3193-1.32-1.3193-.728 0-1.319.5906-1.319 1.3193 0 .7286.591 1.3193 1.319 1.3193Z"
      fill="#7CAAA3" />
    <path d="m588.337 42.4894-28.616-12.8537" stroke="#7CAAA3" stroke-width=".879543" stroke-miterlimit="10" />
    <path
      d="M589.039 44.2026c.729 0 1.32-.5907 1.32-1.3193 0-.7287-.591-1.3193-1.32-1.3193-.728 0-1.319.5906-1.319 1.3193 0 .7286.591 1.3193 1.319 1.3193ZM559.682 31.0092c.728 0 1.319-.5906 1.319-1.3193 0-.7286-.591-1.3193-1.319-1.3193-.729 0-1.32.5907-1.32 1.3193 0 .7287.591 1.3193 1.32 1.3193Z"
      fill="#7CAAA3" />
    <path d="m579.78 50.6377-11.148-29.3335" stroke="#7CAAA3" stroke-width=".879543" stroke-miterlimit="10" />
    <path
      d="M579.998 52.7207c.729 0 1.32-.5907 1.32-1.3193 0-.7287-.591-1.3194-1.32-1.3194-.728 0-1.319.5907-1.319 1.3194 0 .7286.591 1.3193 1.319 1.3193ZM568.564 22.6386c.728 0 1.319-.5907 1.319-1.3193 0-.7286-.591-1.3193-1.319-1.3193-.729 0-1.32.5907-1.32 1.3193 0 .7286.591 1.3193 1.32 1.3193Z"
      fill="#7CAAA3" />
    <path d="m567.972 50.3367 12.861-28.616" stroke="#7CAAA3" stroke-width=".879543" stroke-miterlimit="10" />
    <path
      d="M567.585 52.3501c.729 0 1.32-.5907 1.32-1.3194 0-.7286-.591-1.3193-1.32-1.3193-.728 0-1.319.5907-1.319 1.3193 0 .7287.591 1.3194 1.319 1.3194ZM580.771 22.9936c.728 0 1.319-.5907 1.319-1.3193 0-.7286-.591-1.3193-1.319-1.3193-.729 0-1.32.5907-1.32 1.3193 0 .7286.591 1.3193 1.32 1.3193Z"
      fill="#7CAAA3" />
    <path d="m1211.64 144.693-29.33 11.141" stroke="#7CAAA3" stroke-width=".879543" stroke-miterlimit="10" />
    <path
      d="M1212.4 145.789c.73 0 1.32-.591 1.32-1.32 0-.728-.59-1.319-1.32-1.319-.73 0-1.32.591-1.32 1.319 0 .729.59 1.32 1.32 1.32ZM1182.32 157.223c.73 0 1.32-.591 1.32-1.32 0-.728-.59-1.319-1.32-1.319-.73 0-1.32.591-1.32 1.319 0 .729.59 1.32 1.32 1.32Z"
      fill="#7CAAA3" />
    <path d="m1211.34 156.498-28.62-12.854" stroke="#7CAAA3" stroke-width=".879543" stroke-miterlimit="10" />
    <path
      d="M1212.04 158.211c.73 0 1.32-.591 1.32-1.319 0-.729-.59-1.32-1.32-1.32-.73 0-1.32.591-1.32 1.32 0 .728.59 1.319 1.32 1.319ZM1182.68 145.018c.73 0 1.32-.591 1.32-1.32 0-.728-.59-1.319-1.32-1.319-.73 0-1.32.591-1.32 1.319 0 .729.59 1.32 1.32 1.32Z"
      fill="#7CAAA3" />
    <path d="m1202.78 164.637-11.15-29.325" stroke="#7CAAA3" stroke-width=".879543" stroke-miterlimit="10" />
    <path
      d="M1203 166.728c.73 0 1.32-.59 1.32-1.319 0-.728-.59-1.319-1.32-1.319-.73 0-1.32.591-1.32 1.319 0 .729.59 1.319 1.32 1.319ZM1191.56 136.639c.73 0 1.32-.591 1.32-1.32 0-.728-.59-1.319-1.32-1.319-.73 0-1.32.591-1.32 1.319 0 .729.59 1.32 1.32 1.32Z"
      fill="#7CAAA3" />
    <path d="m1190.97 164.345 12.86-28.616" stroke="#7CAAA3" stroke-width=".879543" stroke-miterlimit="10" />
    <path
      d="M1190.58 166.358c.73 0 1.32-.591 1.32-1.319 0-.729-.59-1.32-1.32-1.32-.73 0-1.32.591-1.32 1.32 0 .728.59 1.319 1.32 1.319ZM1203.77 137.001c.73 0 1.32-.59 1.32-1.319s-.59-1.319-1.32-1.319c-.73 0-1.32.59-1.32 1.319s.59 1.319 1.32 1.319Z"
      fill="#7CAAA3" />
    <path
      d="M804.419 23.8978c1.704 0 3.086-1.3817 3.086-3.0861 0-1.7044-1.382-3.0861-3.086-3.0861-1.705 0-3.086 1.3817-3.086 3.0861 0 1.7044 1.381 3.0861 3.086 3.0861ZM900.088 154.286c1.705 0 3.087-1.382 3.087-3.086 0-1.705-1.382-3.086-3.087-3.086-1.704 0-3.086 1.381-3.086 3.086 0 1.704 1.382 3.086 3.086 3.086ZM167.907 102.594c1.705 0 3.086-1.382 3.086-3.0865 0-1.7044-1.381-3.0861-3.086-3.0861-1.704 0-3.086 1.3817-3.086 3.0861 0 1.7045 1.382 3.0865 3.086 3.0865ZM292.896 14.639c1.705 0 3.086-1.3817 3.086-3.0861 0-1.7044-1.381-3.0861-3.086-3.0861-1.704 0-3.086 1.3817-3.086 3.0861 0 1.7044 1.382 3.0861 3.086 3.0861ZM522.764 136.092c1.704 0 3.086-1.382 3.086-3.086 0-1.705-1.382-3.087-3.086-3.087-1.705 0-3.086 1.382-3.086 3.087 0 1.704 1.381 3.086 3.086 3.086Z"
      fill="#DCCDAA" />
    <path
      d="M206.484 102.594c1.704 0 3.086-1.382 3.086-3.0865 0-1.7044-1.382-3.0861-3.086-3.0861-1.705 0-3.087 1.3817-3.087 3.0861 0 1.7045 1.382 3.0865 3.087 3.0865ZM420.198 14.639c1.704 0 3.086-1.3817 3.086-3.0861 0-1.7044-1.382-3.0861-3.086-3.0861s-3.086 1.3817-3.086 3.0861c0 1.7044 1.382 3.0861 3.086 3.0861ZM560.614 114.938c1.705 0 3.086-1.382 3.086-3.086 0-1.705-1.381-3.086-3.086-3.086-1.704 0-3.086 1.381-3.086 3.086 0 1.704 1.382 3.086 3.086 3.086ZM688.863 149.248c1.705 0 3.086-1.382 3.086-3.086 0-1.705-1.381-3.086-3.086-3.086-1.704 0-3.086 1.381-3.086 3.086 0 1.704 1.382 3.086 3.086 3.086ZM104.64 212.15c1.705 0 3.086-1.381 3.086-3.086 0-1.704-1.381-3.086-3.086-3.086-1.704 0-3.086 1.382-3.086 3.086 0 1.705 1.382 3.086 3.086 3.086Z"
      fill="#7CAAA3" />
    <path
      d="M203.397 9.23864c1.704 0 3.086-1.3817 3.086-3.08612 0-1.70441-1.382-3.08611-3.086-3.08611-1.705 0-3.086 1.3817-3.086 3.08611 0 1.70442 1.381 3.08612 3.086 3.08612ZM336.872 16.954c1.704 0 3.086-1.3817 3.086-3.0861 0-1.7045-1.382-3.0862-3.086-3.0862-1.705 0-3.086 1.3817-3.086 3.0862 0 1.7044 1.381 3.0861 3.086 3.0861ZM890.057 11.5531c1.705 0 3.086-1.3817 3.086-3.08612 0-1.70442-1.381-3.08612-3.086-3.08612-1.704 0-3.086 1.3817-3.086 3.08612 0 1.70442 1.382 3.08612 3.086 3.08612ZM49.8626 60.1595c1.7044 0 3.0861-1.3817 3.0861-3.0861 0-1.7044-1.3817-3.0861-3.0861-3.0861-1.7044 0-3.0861 1.3817-3.0861 3.0861 0 1.7044 1.3817 3.0861 3.0861 3.0861ZM803.648 127.282c1.704 0 3.086-1.382 3.086-3.086s-1.382-3.086-3.086-3.086c-1.705 0-3.086 1.382-3.086 3.086s1.381 3.086 3.086 3.086Z"
      fill="#BB2E26" />
  </g>
  <defs>
    <clipPath id="a">
      <path fill="#fff" d="M0 0h1920v347H0z" />
    </clipPath>
  </defs>
</svg>